<?xml version="1.0" encoding="UTF-8" standalone="no"?>
<svg
   width="1396.8928"
   height="938.1333"
   viewBox="0 0 1396.8928 938.1333"
   version="1.1"
   id="svg76"
   sodipodi:docname="cgroups.svg"
   xml:space="preserve"
   inkscape:version="1.4.4 (dcaf3e7d9e, 2026-05-05)"
   xmlns:inkscape="http://www.inkscape.org/namespaces/inkscape"
   xmlns:sodipodi="http://sodipodi.sourceforge.net/DTD/sodipodi-0.dtd"
   xmlns="http://www.w3.org/2000/svg"
   xmlns:svg="http://www.w3.org/2000/svg"><sodipodi:namedview
     id="namedview76"
     pagecolor="#ffffff"
     bordercolor="#000000"
     borderopacity="0.25"
     inkscape:showpageshadow="2"
     inkscape:pageopacity="0.0"
     inkscape:pagecheckerboard="0"
     inkscape:deskcolor="#d1d1d1"
     inkscape:zoom="0.72924456"
     inkscape:cx="442.92411"
     inkscape:cy="562.22565"
     inkscape:window-width="2560"
     inkscape:window-height="1373"
     inkscape:window-x="0"
     inkscape:window-y="0"
     inkscape:window-maximized="1"
     inkscape:current-layer="svg76" /><defs
     id="defs4"><style
       id="style1">
      .title { font: 700 54px 'Arial', 'Helvetica', sans-serif; fill: #111; }
      .hostLabel { font: 700 44px 'Arial', 'Helvetica', sans-serif; fill: #111; }
      .panelTitle { font: 700 32px 'Arial', 'Helvetica', sans-serif; fill: #111; }
      .bigLabel { font: 700 28px 'Arial', 'Helvetica', sans-serif; fill: #111; }
      .text { font: 400 24px 'Arial', 'Helvetica', sans-serif; fill: #111; }
      .smallText { font: 400 20px 'Arial', 'Helvetica', sans-serif; fill: #111; }
      .line { stroke: #111; stroke-width: 3; fill: none; }
      .thin { stroke: #111; stroke-width: 2; fill: none; }
      .box { fill: #fff; stroke: #111; stroke-width: 3; rx: 8; ry: 8; }
      .lightbox { fill: #fff; stroke: #111; stroke-width: 3; }
      .muted { fill: #BBBBBB; }
      .cpu { fill: #0077BB; }
      .ram { fill: #33BBEE; }
      .io { fill: #EE7733; }
      .pids { fill: #EE3377; }
      .teal { fill: #009988; }
      .red { fill: #CC3311; }
      .greyFill { fill: #F7F7F7; }
      .blackFill { fill: #111; }
      .cpuStroke { stroke: #0077BB; }
      .ramStroke { stroke: #33BBEE; }
      .ioStroke { stroke: #EE7733; }
      .pidsStroke { stroke: #EE3377; }
      .processCircle { fill: #fff; stroke: #111; stroke-width: 3; }
      .metricDivider { stroke: #777; stroke-width: 2; }
    </style><marker
       id="arrow-cpu"
       markerWidth="10"
       markerHeight="10"
       refX="6"
       refY="3"
       orient="auto"
       markerUnits="strokeWidth"><path
         d="M 0,0 V 6 L 6,3 Z"
         fill="#0077bb"
         id="path1" /></marker><marker
       id="arrow-ram"
       markerWidth="10"
       markerHeight="10"
       refX="6"
       refY="3"
       orient="auto"
       markerUnits="strokeWidth"><path
         d="M 0,0 V 6 L 6,3 Z"
         fill="#33bbee"
         id="path2" /></marker><marker
       id="arrow-io"
       markerWidth="10"
       markerHeight="10"
       refX="6"
       refY="3"
       orient="auto"
       markerUnits="strokeWidth"><path
         d="M 0,0 V 6 L 6,3 Z"
         fill="#ee7733"
         id="path3" /></marker><marker
       id="arrow-pids"
       markerWidth="10"
       markerHeight="10"
       refX="6"
       refY="3"
       orient="auto"
       markerUnits="strokeWidth"><path
         d="M 0,0 V 6 L 6,3 Z"
         fill="#ee3377"
         id="path4" /></marker><marker
       style="overflow:visible"
       id="DartArrow-1-0"
       refX="0"
       refY="0"
       orient="auto-start-reverse"
       inkscape:stockid="Dart arrow"
       markerWidth="0.69999999"
       markerHeight="0.69999999"
       viewBox="0 0 1 1"
       inkscape:isstock="true"
       inkscape:collect="always"
       preserveAspectRatio="xMidYMid"
       markerUnits="strokeWidth"><path
         style="fill:context-stroke;fill-rule:evenodd;stroke:none"
         d="M 0,0 5,-5 -12.5,0 5,5 Z"
         transform="scale(-0.5)"
         id="path6-3-3" /></marker><marker
       style="overflow:visible"
       id="DartArrow-1-0-4"
       refX="0"
       refY="0"
       orient="auto-start-reverse"
       inkscape:stockid="Dart arrow"
       markerWidth="0.69999999"
       markerHeight="0.69999999"
       viewBox="0 0 1 1"
       inkscape:isstock="true"
       inkscape:collect="always"
       preserveAspectRatio="xMidYMid"
       markerUnits="strokeWidth"><path
         style="fill:context-stroke;fill-rule:evenodd;stroke:none"
         d="M 0,0 5,-5 -12.5,0 5,5 Z"
         transform="scale(-0.5)"
         id="path6-3-3-7" /></marker><marker
       style="overflow:visible"
       id="DartArrow-1-0-5"
       refX="0"
       refY="0"
       orient="auto-start-reverse"
       inkscape:stockid="Dart arrow"
       markerWidth="0.69999999"
       markerHeight="0.69999999"
       viewBox="0 0 1 1"
       inkscape:isstock="true"
       inkscape:collect="always"
       preserveAspectRatio="xMidYMid"
       markerUnits="strokeWidth"><path
         style="fill:context-stroke;fill-rule:evenodd;stroke:none"
         d="M 0,0 5,-5 -12.5,0 5,5 Z"
         transform="scale(-0.5)"
         id="path6-3-3-0" /></marker><marker
       style="overflow:visible"
       id="DartArrow-1-0-4-3"
       refX="0"
       refY="0"
       orient="auto-start-reverse"
       inkscape:stockid="Dart arrow"
       markerWidth="0.69999999"
       markerHeight="0.69999999"
       viewBox="0 0 1 1"
       inkscape:isstock="true"
       inkscape:collect="always"
       preserveAspectRatio="xMidYMid"
       markerUnits="strokeWidth"><path
         style="fill:context-stroke;fill-rule:evenodd;stroke:none"
         d="M 0,0 5,-5 -12.5,0 5,5 Z"
         transform="scale(-0.5)"
         id="path6-3-3-7-6" /></marker><marker
       style="overflow:visible"
       id="DartArrow-1-0-4-3-3"
       refX="0"
       refY="0"
       orient="auto-start-reverse"
       inkscape:stockid="Dart arrow"
       markerWidth="0.69999999"
       markerHeight="0.69999999"
       viewBox="0 0 1 1"
       inkscape:isstock="true"
       inkscape:collect="always"
       preserveAspectRatio="xMidYMid"
       markerUnits="strokeWidth"><path
         style="fill:context-stroke;fill-rule:evenodd;stroke:none"
         d="M 0,0 5,-5 -12.5,0 5,5 Z"
         transform="scale(-0.5)"
         id="path6-3-3-7-6-2" /></marker><marker
       style="overflow:visible"
       id="DartArrow-1-0-5-0"
       refX="0"
       refY="0"
       orient="auto-start-reverse"
       inkscape:stockid="Dart arrow"
       markerWidth="0.69999999"
       markerHeight="0.69999999"
       viewBox="0 0 1 1"
       inkscape:isstock="true"
       inkscape:collect="always"
       preserveAspectRatio="xMidYMid"
       markerUnits="strokeWidth"><path
         style="fill:context-stroke;fill-rule:evenodd;stroke:none"
         d="M 0,0 5,-5 -12.5,0 5,5 Z"
         transform="scale(-0.5)"
         id="path6-3-3-0-6" /></marker></defs><rect
     x="1.5"
     y="1.5"
     width="1393.8928"
     height="935.1333"
     class="box"
     id="rect5"
     ry="31.199966"
     style="fill:none" /><path
     style="fill:none;fill-opacity:1;stroke:#0077bb;stroke-width:5;stroke-linecap:butt;stroke-dasharray:none;stroke-opacity:1;marker-end:url(#DartArrow-1-0)"
     d="m 254.5,212.66608 v 43.01346"
     id="path95-1-0"
     sodipodi:nodetypes="cc" /><path
     style="fill:none;fill-opacity:1;stroke:#0077bb;stroke-width:5;stroke-linecap:butt;stroke-dasharray:none;stroke-opacity:1;marker-end:url(#DartArrow-1-0-4)"
     d="M 254.5,410.64856 V 459.2424"
     id="path95-1-0-4"
     sodipodi:nodetypes="cc" /><path
     style="fill:none;fill-opacity:1;stroke:#33bbee;stroke-width:5;stroke-linecap:butt;stroke-dasharray:none;stroke-opacity:1;marker-end:url(#DartArrow-1-0-5)"
     d="m 707.19641,212.66608 v 43.01346"
     id="path95-1-0-0"
     sodipodi:nodetypes="cc" /><path
     style="fill:none;fill-opacity:1;stroke:#33bbee;stroke-width:5;stroke-linecap:butt;stroke-dasharray:none;stroke-opacity:1;marker-end:url(#DartArrow-1-0-4-3)"
     d="M 707.19641,410.64856 V 459.2424"
     id="path95-1-0-4-6"
     sodipodi:nodetypes="cc" /><path
     style="fill:none;fill-opacity:1;stroke:#ee7733;stroke-width:5;stroke-linecap:butt;stroke-dasharray:none;stroke-opacity:1;marker-end:url(#DartArrow-1-0-5-0)"
     d="m 1161.9804,212.66608 v 43.01346"
     id="path95-1-0-0-5"
     sodipodi:nodetypes="cc" /><path
     style="fill:none;fill-opacity:1;stroke:#ee7733;stroke-width:5;stroke-linecap:butt;stroke-dasharray:none;stroke-opacity:1;marker-end:url(#DartArrow-1-0-4-3-3)"
     d="M 1161.9804,410.64856 V 459.2424"
     id="path95-1-0-4-6-5"
     sodipodi:nodetypes="cc" /><!-- Resource panels --><rect
     width="361.69464"
     height="162.66608"
     class="box"
     id="rect6"
     x="72.210716"
     y="50"
     ry="23.151978"
     style="fill:none" /><rect
     width="1343.7375"
     height="133.76863"
     class="box"
     id="rect6-67"
     x="27.5"
     y="276.87994"
     ry="23.151978"
     style="fill:none;stroke:#111111;stroke-width:3" /><text
     x="252.21072"
     y="96"
     text-anchor="middle"
     class="panelTitle"
     id="text6"
     style="font-style:normal;font-variant:normal;font-weight:700;font-stretch:normal;font-size:32px;line-height:normal;font-family:Arial, Helvetica, sans-serif"><tspan
       style="font-style:normal;font-variant:normal;font-weight:bold;font-stretch:normal;font-family:'SUSE Mono 20250730';-inkscape-font-specification:'SUSE Mono 20250730 Bold'"
       id="tspan79">CPU</tspan></text><text
     x="216.85498"
     y="357.87476"
     text-anchor="middle"
     class="panelTitle"
     id="text6-3"
     style="font-style:normal;font-variant:normal;font-weight:700;font-stretch:normal;font-size:32px;line-height:normal;font-family:Arial, Helvetica, sans-serif;fill:#111111"><tspan
       style="font-style:normal;font-variant:normal;font-weight:bold;font-stretch:normal;font-family:'SUSE Mono 20250730';-inkscape-font-specification:'SUSE Mono 20250730 Bold'"
       id="tspan79-5">Limit</tspan></text><text
     x="523.88422"
     y="357.55475"
     text-anchor="middle"
     class="panelTitle"
     id="text6-3-9"
     style="font-style:normal;font-variant:normal;font-weight:700;font-stretch:normal;font-size:32px;line-height:normal;font-family:Arial, Helvetica, sans-serif;fill:#111111"><tspan
       style="font-style:normal;font-variant:normal;font-weight:bold;font-stretch:normal;font-family:'SUSE Mono 20250730';-inkscape-font-specification:'SUSE Mono 20250730 Bold'"
       id="tspan79-5-2">Measure</tspan></text><text
     x="872.48474"
     y="357.55475"
     text-anchor="middle"
     class="panelTitle"
     id="text6-3-9-3"
     style="font-style:normal;font-variant:normal;font-weight:700;font-stretch:normal;font-size:32px;line-height:normal;font-family:Arial, Helvetica, sans-serif;fill:#111111"><tspan
       style="font-style:normal;font-variant:normal;font-weight:bold;font-stretch:normal;font-family:'SUSE Mono 20250730';-inkscape-font-specification:'SUSE Mono 20250730 Bold'"
       id="tspan79-5-2-7">Prioritize</tspan></text><text
     x="1198.3447"
     y="357.60278"
     text-anchor="middle"
     class="panelTitle"
     id="text6-3-9-3-3"
     style="font-style:normal;font-variant:normal;font-weight:700;font-stretch:normal;font-size:32px;line-height:normal;font-family:Arial, Helvetica, sans-serif;fill:#111111"><tspan
       style="font-style:normal;font-variant:normal;font-weight:bold;font-stretch:normal;font-family:'SUSE Mono 20250730';-inkscape-font-specification:'SUSE Mono 20250730 Bold'"
       id="tspan79-5-2-7-6">Control</tspan></text><rect
     x="92.210716"
     y="116"
     width="313.39151"
     height="34"
     rx="4"
     class="thin muted"
     fill="#fff"
     id="rect7" /><rect
     x="93.124069"
     y="117.02719"
     width="213.02193"
     height="32.003204"
     rx="7.9089284"
     class="cpu"
     id="rect8"
     ry="10.635846" /><rect
     x="93.081207"
     y="117.02719"
     width="72.587784"
     height="32.003162"
     rx="0"
     class="cpu"
     id="rect8-4"
     style="fill:#0077bb"
     ry="3.1513393" /><text
     x="254.21072"
     y="184"
     text-anchor="middle"
     class="text"
     id="text8"
     style="font-style:normal;font-variant:normal;font-weight:400;font-stretch:normal;font-size:24px;line-height:normal;font-family:Arial, Helvetica, sans-serif"><tspan
       style="font-style:normal;font-variant:normal;font-weight:normal;font-stretch:normal;font-family:'SUSE Mono 20250730';-inkscape-font-specification:'SUSE Mono 20250730'"
       id="tspan78">16 cores</tspan></text><rect
     width="361.69464"
     height="162.66608"
     class="box"
     id="rect6-6"
     x="522.0036"
     y="50"
     ry="23.151978"
     style="fill:none;stroke:#111111;stroke-width:3" /><text
     x="702.0036"
     y="96"
     text-anchor="middle"
     class="panelTitle"
     id="text6-4"
     style="font-style:normal;font-variant:normal;font-weight:700;font-stretch:normal;font-size:32px;line-height:normal;font-family:Arial, Helvetica, sans-serif;fill:#111111"><tspan
       style="font-style:normal;font-variant:normal;font-weight:bold;font-stretch:normal;font-family:'SUSE Mono 20250730';-inkscape-font-specification:'SUSE Mono 20250730 Bold'"
       id="tspan79-3">RAM</tspan></text><rect
     x="542.0036"
     y="116"
     width="313.39151"
     height="34"
     rx="4"
     class="thin muted"
     fill="#fff"
     id="rect7-3"
     style="fill:#bbbbbb;stroke:#111111;stroke-width:2" /><rect
     x="542.91693"
     y="117.02719"
     width="213.02193"
     height="32.003204"
     rx="7.9089284"
     class="cpu"
     id="rect8-3"
     ry="10.635846"
     style="fill:#33bbee;fill-opacity:1" /><rect
     x="542.87408"
     y="117.02719"
     width="72.587784"
     height="32.003162"
     rx="0"
     class="cpu"
     id="rect8-4-8"
     style="fill:#33bbee;fill-opacity:1"
     ry="3.1513393" /><text
     x="704.0036"
     y="184"
     text-anchor="middle"
     class="text"
     id="text8-6"
     style="font-style:normal;font-variant:normal;font-weight:400;font-stretch:normal;font-size:24px;line-height:normal;font-family:Arial, Helvetica, sans-serif;fill:#111111"><tspan
       style="font-style:normal;font-variant:normal;font-weight:normal;font-stretch:normal;font-family:'SUSE Mono 20250730';-inkscape-font-specification:'SUSE Mono 20250730'"
       id="tspan78-0">32 GiB</tspan></text><rect
     width="361.69464"
     height="162.66608"
     class="box"
     id="rect6-6-8"
     x="968.16077"
     y="50"
     ry="23.151978"
     style="fill:none;stroke:#111111;stroke-width:3" /><text
     x="1148.1606"
     y="96"
     text-anchor="middle"
     class="panelTitle"
     id="text6-4-8"
     style="font-style:normal;font-variant:normal;font-weight:700;font-stretch:normal;font-size:32px;line-height:normal;font-family:Arial, Helvetica, sans-serif;fill:#111111"><tspan
       style="font-style:normal;font-variant:normal;font-weight:bold;font-stretch:normal;font-family:'SUSE Mono 20250730';-inkscape-font-specification:'SUSE Mono 20250730 Bold'"
       id="tspan79-3-8">Disk I/O</tspan></text><rect
     x="988.16083"
     y="116"
     width="313.39151"
     height="34"
     rx="4"
     class="thin muted"
     fill="#fff"
     id="rect7-3-9"
     style="fill:#bbbbbb;stroke:#111111;stroke-width:2" /><rect
     x="989.07397"
     y="117.02719"
     width="213.02193"
     height="32.003204"
     rx="7.9089284"
     class="cpu"
     id="rect8-3-7"
     ry="10.635846"
     style="fill:#ee7733;fill-opacity:1" /><rect
     x="989.03119"
     y="117.02719"
     width="72.587784"
     height="32.003162"
     rx="0"
     class="cpu"
     id="rect8-4-8-7"
     style="fill:#ee7733;fill-opacity:1"
     ry="3.1513393" /><text
     x="1150.1606"
     y="184"
     text-anchor="middle"
     class="text"
     id="text8-6-6"
     style="font-style:normal;font-variant:normal;font-weight:400;font-stretch:normal;font-size:24px;line-height:normal;font-family:Arial, Helvetica, sans-serif;fill:#111111"><tspan
       style="font-style:normal;font-variant:normal;font-weight:normal;font-stretch:normal;font-family:'SUSE Mono 20250730';-inkscape-font-specification:'SUSE Mono 20250730'"
       id="tspan78-0-4">5 GiB/s</tspan></text><!-- Buses --><!-- cgroup panels --><rect
     width="438"
     height="432"
     class="box"
     id="rect32"
     x="29"
     y="480.92053"
     style="fill:none"
     ry="34" /><text
     x="248"
     y="522.92053"
     text-anchor="middle"
     class="panelTitle"
     id="text32"
     style="font-style:normal;font-variant:normal;font-weight:700;font-stretch:normal;font-size:32px;line-height:normal;font-family:Arial, Helvetica, sans-serif"><tspan
       style="font-style:normal;font-variant:normal;font-weight:bold;font-stretch:normal;font-family:'SUSE Mono 20250730';-inkscape-font-specification:'SUSE Mono 20250730 Bold'"
       id="tspan80">cgroup A</tspan></text><circle
     cx="145"
     cy="592.92053"
     r="34"
     class="processCircle"
     id="circle32"
     style="fill:none" /><text
     x="145"
     y="602.92053"
     text-anchor="middle"
     class="bigLabel"
     id="text34"
     style="font-style:normal;font-variant:normal;font-weight:700;font-stretch:normal;font-size:28px;line-height:normal;font-family:Arial, Helvetica, sans-serif"><tspan
       style="font-style:normal;font-variant:normal;font-weight:bold;font-stretch:normal;font-family:'SUSE Mono 20250730';-inkscape-font-specification:'SUSE Mono 20250730 Bold'"
       id="tspan88">P</tspan></text><circle
     cx="245.45401"
     cy="592.92053"
     r="34"
     class="processCircle"
     id="circle32-0"
     style="fill:none;stroke:#111111;stroke-width:3" /><text
     x="245.45401"
     y="602.92053"
     text-anchor="middle"
     class="bigLabel"
     id="text34-4"
     style="font-style:normal;font-variant:normal;font-weight:700;font-stretch:normal;font-size:28px;line-height:normal;font-family:Arial, Helvetica, sans-serif;fill:#111111"><tspan
       style="font-style:normal;font-variant:normal;font-weight:bold;font-stretch:normal;font-family:'SUSE Mono 20250730';-inkscape-font-specification:'SUSE Mono 20250730 Bold'"
       id="tspan88-4">P</tspan></text><circle
     cx="345.90802"
     cy="592.92053"
     r="34"
     class="processCircle"
     id="circle32-4"
     style="fill:none;stroke:#111111;stroke-width:3" /><text
     x="345.90802"
     y="602.92053"
     text-anchor="middle"
     class="bigLabel"
     id="text34-7"
     style="font-style:normal;font-variant:normal;font-weight:700;font-stretch:normal;font-size:28px;line-height:normal;font-family:Arial, Helvetica, sans-serif;fill:#111111"><tspan
       style="font-style:normal;font-variant:normal;font-weight:bold;font-stretch:normal;font-family:'SUSE Mono 20250730';-inkscape-font-specification:'SUSE Mono 20250730 Bold'"
       id="tspan88-6">P</tspan></text><text
     x="113"
     y="705.92053"
     class="text"
     id="text37"
     style="font-style:normal;font-variant:normal;font-weight:400;font-stretch:normal;font-size:24px;line-height:3.2;font-family:Arial, Helvetica, sans-serif"><tspan
       sodipodi:role="line"
       id="tspan90"
       x="113"
       y="705.92053"
       style="font-style:normal;font-variant:normal;font-weight:normal;font-stretch:normal;line-height:3.2;font-family:'SUSE Mono 20250730';-inkscape-font-specification:'SUSE Mono 20250730'">CPU</tspan><tspan
       sodipodi:role="line"
       x="113"
       y="782.7691"
       style="font-style:normal;font-variant:normal;font-weight:normal;font-stretch:normal;line-height:3.2;font-family:'SUSE Mono 20250730';-inkscape-font-specification:'SUSE Mono 20250730'"
       id="tspan91">RAM</tspan><tspan
       sodipodi:role="line"
       x="113"
       y="859.61768"
       style="font-style:normal;font-variant:normal;font-weight:normal;font-stretch:normal;line-height:3.2;font-family:'SUSE Mono 20250730';-inkscape-font-specification:'SUSE Mono 20250730'"
       id="tspan92">Disk I/O</tspan></text><text
     x="285.65714"
     y="705.92053"
     class="text"
     id="text37-1"
     style="font-style:normal;font-variant:normal;font-weight:400;font-stretch:normal;font-size:24px;line-height:3.2;font-family:Arial, Helvetica, sans-serif;fill:#111111"><tspan
       sodipodi:role="line"
       id="tspan90-7"
       x="285.65714"
       y="705.92053"
       style="font-style:normal;font-variant:normal;font-weight:normal;font-stretch:normal;line-height:3.2;font-family:'SUSE Mono 20250730';-inkscape-font-specification:'SUSE Mono 20250730'">50%</tspan><tspan
       sodipodi:role="line"
       x="285.65714"
       y="782.7691"
       style="font-style:normal;font-variant:normal;font-weight:normal;font-stretch:normal;line-height:3.2;font-family:'SUSE Mono 20250730';-inkscape-font-specification:'SUSE Mono 20250730'"
       id="tspan91-5">1 GiB</tspan><tspan
       sodipodi:role="line"
       x="285.65714"
       y="859.61768"
       style="font-style:normal;font-variant:normal;font-weight:normal;font-stretch:normal;line-height:3.2;font-family:'SUSE Mono 20250730';-inkscape-font-specification:'SUSE Mono 20250730'"
       id="tspan92-9">100 MiB/s</tspan></text><g
     style="fill:#ee7733;fill-opacity:1"
     id="g80"
     transform="matrix(0.0575,0,0,0.0575,41.8,880.9765)"><path
       d="m 240,-80 q -33,0 -56.5,-23.5 Q 160,-127 160,-160 v -640 q 0,-33 23.5,-56.5 Q 207,-880 240,-880 h 480 q 33,0 56.5,23.5 23.5,23.5 23.5,56.5 v 640 q 0,33 -23.5,56.5 Q 753,-80 720,-80 Z m 0,-80 H 720 V -800 H 240 Z m 80,-80 h 320 v -80 H 320 Z m 160,-160 q 66,0 113,-47 47,-47 47,-113 0,-66 -47,-113 -47,-47 -113,-47 -66,0 -113,47 -47,47 -47,113 0,66 47,113 47,47 113,47 z m 0,-120 q -17,0 -28.5,-11.5 Q 440,-543 440,-560 q 0,-17 11.5,-28.5 11.5,-11.5 28.5,-11.5 17,0 28.5,11.5 11.5,11.5 11.5,28.5 0,17 -11.5,28.5 Q 497,-520 480,-520 Z m 0,-40 z"
       id="path1-8"
       style="fill:#ee7733;fill-opacity:1" /></g><g
     style="fill:#33bbee;fill-opacity:1"
     id="g81"
     transform="matrix(0.0587494,0,0,0.0587494,40.230647,802.20503)"><path
       d="m 240,-360 h 80 v -240 h -80 z m 200,0 h 80 v -240 h -80 z m 200,0 h 80 v -240 h -80 z m -480,80 H 800 V -680 H 160 Z m 0,0 v -400 z m 40,160 v -80 h -40 q -33,0 -56.5,-23.5 Q 80,-247 80,-280 v -400 q 0,-33 23.5,-56.5 Q 127,-760 160,-760 h 40 v -80 h 80 v 80 h 160 v -80 h 80 v 80 h 160 v -80 h 80 v 80 h 40 q 33,0 56.5,23.5 23.5,23.5 23.5,56.5 v 400 q 0,33 -23.5,56.5 Q 833,-200 800,-200 h -40 v 80 h -80 v -80 H 520 v 80 h -80 v -80 H 280 v 80 z"
       id="path1-1"
       style="fill:#33bbee;fill-opacity:1" /></g><g
     style="fill:#0077bb;fill-opacity:1"
     id="g82"
     transform="matrix(0.07533094,0,0,0.07533094,32.599658,732.32452)"><path
       d="m 360,-360 v -240 h 240 v 240 z m 80,-80 h 80 v -80 h -80 z m -80,320 v -80 h -80 q -33,0 -56.5,-23.5 Q 200,-247 200,-280 v -80 h -80 v -80 h 80 v -80 h -80 v -80 h 80 v -80 q 0,-33 23.5,-56.5 Q 247,-760 280,-760 h 80 v -80 h 80 v 80 h 80 v -80 h 80 v 80 h 80 q 33,0 56.5,23.5 23.5,23.5 23.5,56.5 v 80 h 80 v 80 h -80 v 80 h 80 v 80 h -80 v 80 q 0,33 -23.5,56.5 Q 713,-200 680,-200 h -80 v 80 h -80 v -80 h -80 v 80 z M 680,-280 V -680 H 280 v 400 z M 480,-480 Z"
       id="path1-0"
       style="fill:#0077bb;fill-opacity:1" /></g><path
     style="fill:none;stroke:#777777;stroke-width:2;stroke-linecap:round;stroke-dasharray:none;stroke-opacity:1"
     d="M 41.277944,648.49642 H 455"
     id="path94"
     sodipodi:nodetypes="cc" /><rect
     width="438"
     height="432"
     class="box"
     id="rect32-0"
     x="480.85358"
     y="480.92053"
     style="fill:none;stroke:#111111;stroke-width:3"
     ry="34" /><text
     x="699.85358"
     y="522.92053"
     text-anchor="middle"
     class="panelTitle"
     id="text32-3"
     style="font-style:normal;font-variant:normal;font-weight:700;font-stretch:normal;font-size:32px;line-height:normal;font-family:Arial, Helvetica, sans-serif;fill:#111111"><tspan
       style="font-style:normal;font-variant:normal;font-weight:bold;font-stretch:normal;font-family:'SUSE Mono 20250730';-inkscape-font-specification:'SUSE Mono 20250730 Bold'"
       id="tspan80-0">cgroup B</tspan></text><circle
     cx="648.30536"
     cy="592.92053"
     r="34"
     class="processCircle"
     id="circle32-9"
     style="fill:none;stroke:#111111;stroke-width:3" /><text
     x="648.30536"
     y="602.92053"
     text-anchor="middle"
     class="bigLabel"
     id="text34-2"
     style="font-style:normal;font-variant:normal;font-weight:700;font-stretch:normal;font-size:28px;line-height:normal;font-family:Arial, Helvetica, sans-serif;fill:#111111"><tspan
       style="font-style:normal;font-variant:normal;font-weight:bold;font-stretch:normal;font-family:'SUSE Mono 20250730';-inkscape-font-specification:'SUSE Mono 20250730 Bold'"
       id="tspan88-5">P</tspan></text><circle
     cx="748.75934"
     cy="592.92053"
     r="34"
     class="processCircle"
     id="circle32-0-4"
     style="fill:none;stroke:#111111;stroke-width:3" /><text
     x="748.75934"
     y="602.92053"
     text-anchor="middle"
     class="bigLabel"
     id="text34-4-0"
     style="font-style:normal;font-variant:normal;font-weight:700;font-stretch:normal;font-size:28px;line-height:normal;font-family:Arial, Helvetica, sans-serif;fill:#111111"><tspan
       style="font-style:normal;font-variant:normal;font-weight:bold;font-stretch:normal;font-family:'SUSE Mono 20250730';-inkscape-font-specification:'SUSE Mono 20250730 Bold'"
       id="tspan88-4-5">P</tspan></text><text
     x="564.85358"
     y="705.92053"
     class="text"
     id="text37-9"
     style="font-style:normal;font-variant:normal;font-weight:400;font-stretch:normal;font-size:24px;line-height:3.2;font-family:Arial, Helvetica, sans-serif;fill:#111111"><tspan
       sodipodi:role="line"
       id="tspan90-2"
       x="564.85358"
       y="705.92053"
       style="font-style:normal;font-variant:normal;font-weight:normal;font-stretch:normal;line-height:3.2;font-family:'SUSE Mono 20250730';-inkscape-font-specification:'SUSE Mono 20250730'">CPU</tspan><tspan
       sodipodi:role="line"
       x="564.85358"
       y="782.7691"
       style="font-style:normal;font-variant:normal;font-weight:normal;font-stretch:normal;line-height:3.2;font-family:'SUSE Mono 20250730';-inkscape-font-specification:'SUSE Mono 20250730'"
       id="tspan91-2">RAM</tspan><tspan
       sodipodi:role="line"
       x="564.85358"
       y="859.61768"
       style="font-style:normal;font-variant:normal;font-weight:normal;font-stretch:normal;line-height:3.2;font-family:'SUSE Mono 20250730';-inkscape-font-specification:'SUSE Mono 20250730'"
       id="tspan92-4">Disk I/O</tspan></text><text
     x="753.02502"
     y="705.92053"
     class="text"
     id="text37-1-7"
     style="font-style:normal;font-variant:normal;font-weight:400;font-stretch:normal;font-size:24px;line-height:3.2;font-family:Arial, Helvetica, sans-serif;fill:#111111"><tspan
       sodipodi:role="line"
       id="tspan90-7-7"
       x="753.02502"
       y="705.92053"
       style="font-style:normal;font-variant:normal;font-weight:normal;font-stretch:normal;line-height:3.2;font-family:'SUSE Mono 20250730';-inkscape-font-specification:'SUSE Mono 20250730'">25%</tspan><tspan
       sodipodi:role="line"
       x="753.02502"
       y="782.7691"
       style="font-style:normal;font-variant:normal;font-weight:normal;font-stretch:normal;line-height:3.2;font-family:'SUSE Mono 20250730';-inkscape-font-specification:'SUSE Mono 20250730'"
       id="tspan91-5-5">750 MiB</tspan><tspan
       sodipodi:role="line"
       x="753.02502"
       y="859.61768"
       style="font-style:normal;font-variant:normal;font-weight:normal;font-stretch:normal;line-height:3.2;font-family:'SUSE Mono 20250730';-inkscape-font-specification:'SUSE Mono 20250730'"
       id="tspan92-9-4">1 GiB/s</tspan></text><g
     style="fill:#ee7733;fill-opacity:1"
     id="g80-8"
     transform="matrix(0.0575,0,0,0.0575,493.65357,880.9765)"><path
       d="m 240,-80 q -33,0 -56.5,-23.5 Q 160,-127 160,-160 v -640 q 0,-33 23.5,-56.5 Q 207,-880 240,-880 h 480 q 33,0 56.5,23.5 23.5,23.5 23.5,56.5 v 640 q 0,33 -23.5,56.5 Q 753,-80 720,-80 Z m 0,-80 H 720 V -800 H 240 Z m 80,-80 h 320 v -80 H 320 Z m 160,-160 q 66,0 113,-47 47,-47 47,-113 0,-66 -47,-113 -47,-47 -113,-47 -66,0 -113,47 -47,47 -47,113 0,66 47,113 47,47 113,47 z m 0,-120 q -17,0 -28.5,-11.5 Q 440,-543 440,-560 q 0,-17 11.5,-28.5 11.5,-11.5 28.5,-11.5 17,0 28.5,11.5 11.5,11.5 11.5,28.5 0,17 -11.5,28.5 Q 497,-520 480,-520 Z m 0,-40 z"
       id="path1-8-1"
       style="fill:#ee7733;fill-opacity:1" /></g><g
     style="fill:#33bbee;fill-opacity:1"
     id="g81-2"
     transform="matrix(0.0587494,0,0,0.0587494,492.08422,802.20503)"><path
       d="m 240,-360 h 80 v -240 h -80 z m 200,0 h 80 v -240 h -80 z m 200,0 h 80 v -240 h -80 z m -480,80 H 800 V -680 H 160 Z m 0,0 v -400 z m 40,160 v -80 h -40 q -33,0 -56.5,-23.5 Q 80,-247 80,-280 v -400 q 0,-33 23.5,-56.5 Q 127,-760 160,-760 h 40 v -80 h 80 v 80 h 160 v -80 h 80 v 80 h 160 v -80 h 80 v 80 h 40 q 33,0 56.5,23.5 23.5,23.5 23.5,56.5 v 400 q 0,33 -23.5,56.5 Q 833,-200 800,-200 h -40 v 80 h -80 v -80 H 520 v 80 h -80 v -80 H 280 v 80 z"
       id="path1-1-8"
       style="fill:#33bbee;fill-opacity:1" /></g><g
     style="fill:#0077bb;fill-opacity:1"
     id="g82-9"
     transform="matrix(0.07533094,0,0,0.07533094,484.45323,732.32452)"><path
       d="m 360,-360 v -240 h 240 v 240 z m 80,-80 h 80 v -80 h -80 z m -80,320 v -80 h -80 q -33,0 -56.5,-23.5 Q 200,-247 200,-280 v -80 h -80 v -80 h 80 v -80 h -80 v -80 h 80 v -80 q 0,-33 23.5,-56.5 Q 247,-760 280,-760 h 80 v -80 h 80 v 80 h 80 v -80 h 80 v 80 h 80 q 33,0 56.5,23.5 23.5,23.5 23.5,56.5 v 80 h 80 v 80 h -80 v 80 h 80 v 80 h -80 v 80 q 0,33 -23.5,56.5 Q 713,-200 680,-200 h -80 v 80 h -80 v -80 h -80 v 80 z M 680,-280 V -680 H 280 v 400 z M 480,-480 Z"
       id="path1-0-3"
       style="fill:#0077bb;fill-opacity:1" /></g><path
     style="fill:none;stroke:#777777;stroke-width:2;stroke-linecap:round;stroke-dasharray:none;stroke-opacity:1"
     d="M 493.13152,648.49642 H 906.85357"
     id="path94-6"
     sodipodi:nodetypes="cc" /><rect
     width="438"
     height="432"
     class="box"
     id="rect32-02"
     x="931.73749"
     y="480.92053"
     style="fill:none;stroke:#111111;stroke-width:3"
     ry="34" /><text
     x="1150.7375"
     y="522.92053"
     text-anchor="middle"
     class="panelTitle"
     id="text32-1"
     style="font-style:normal;font-variant:normal;font-weight:700;font-stretch:normal;font-size:32px;line-height:normal;font-family:Arial, Helvetica, sans-serif;fill:#111111"><tspan
       style="font-style:normal;font-variant:normal;font-weight:bold;font-stretch:normal;font-family:'SUSE Mono 20250730';-inkscape-font-specification:'SUSE Mono 20250730 Bold'"
       id="tspan80-05">cgroup C</tspan></text><circle
     cx="1148.1915"
     cy="592.92053"
     r="34"
     class="processCircle"
     id="circle32-0-8"
     style="fill:none;stroke:#111111;stroke-width:3" /><text
     x="1148.1915"
     y="602.92053"
     text-anchor="middle"
     class="bigLabel"
     id="text34-4-5"
     style="font-style:normal;font-variant:normal;font-weight:700;font-stretch:normal;font-size:28px;line-height:normal;font-family:Arial, Helvetica, sans-serif;fill:#111111"><tspan
       style="font-style:normal;font-variant:normal;font-weight:bold;font-stretch:normal;font-family:'SUSE Mono 20250730';-inkscape-font-specification:'SUSE Mono 20250730 Bold'"
       id="tspan88-4-0">P</tspan></text><text
     x="1015.7375"
     y="705.92053"
     class="text"
     id="text37-5"
     style="font-style:normal;font-variant:normal;font-weight:400;font-stretch:normal;font-size:24px;line-height:3.2;font-family:Arial, Helvetica, sans-serif;fill:#111111"><tspan
       sodipodi:role="line"
       id="tspan90-8"
       x="1015.7375"
       y="705.92053"
       style="font-style:normal;font-variant:normal;font-weight:normal;font-stretch:normal;line-height:3.2;font-family:'SUSE Mono 20250730';-inkscape-font-specification:'SUSE Mono 20250730'">CPU</tspan><tspan
       sodipodi:role="line"
       x="1015.7375"
       y="782.7691"
       style="font-style:normal;font-variant:normal;font-weight:normal;font-stretch:normal;line-height:3.2;font-family:'SUSE Mono 20250730';-inkscape-font-specification:'SUSE Mono 20250730'"
       id="tspan91-6">RAM</tspan><tspan
       sodipodi:role="line"
       x="1015.7375"
       y="859.61768"
       style="font-style:normal;font-variant:normal;font-weight:normal;font-stretch:normal;line-height:3.2;font-family:'SUSE Mono 20250730';-inkscape-font-specification:'SUSE Mono 20250730'"
       id="tspan92-2">Disk I/O</tspan></text><text
     x="1203.9089"
     y="705.92053"
     class="text"
     id="text37-1-8"
     style="font-style:normal;font-variant:normal;font-weight:400;font-stretch:normal;font-size:24px;line-height:3.2;font-family:Arial, Helvetica, sans-serif;fill:#111111"><tspan
       sodipodi:role="line"
       id="tspan90-7-4"
       x="1203.9089"
       y="705.92053"
       style="font-style:normal;font-variant:normal;font-weight:normal;font-stretch:normal;line-height:3.2;font-family:'SUSE Mono 20250730';-inkscape-font-specification:'SUSE Mono 20250730'">60%</tspan><tspan
       sodipodi:role="line"
       x="1203.9089"
       y="782.7691"
       style="font-style:normal;font-variant:normal;font-weight:normal;font-stretch:normal;line-height:3.2;font-family:'SUSE Mono 20250730';-inkscape-font-specification:'SUSE Mono 20250730'"
       id="tspan91-5-7">4 GiB</tspan><tspan
       sodipodi:role="line"
       x="1203.9089"
       y="859.61768"
       style="font-style:normal;font-variant:normal;font-weight:normal;font-stretch:normal;line-height:3.2;font-family:'SUSE Mono 20250730';-inkscape-font-specification:'SUSE Mono 20250730'"
       id="tspan92-9-2">2 GiB/s</tspan></text><g
     style="fill:#ee7733;fill-opacity:1"
     id="g80-4"
     transform="matrix(0.0575,0,0,0.0575,944.5375,880.9765)"><path
       d="m 240,-80 q -33,0 -56.5,-23.5 Q 160,-127 160,-160 v -640 q 0,-33 23.5,-56.5 Q 207,-880 240,-880 h 480 q 33,0 56.5,23.5 23.5,23.5 23.5,56.5 v 640 q 0,33 -23.5,56.5 Q 753,-80 720,-80 Z m 0,-80 H 720 V -800 H 240 Z m 80,-80 h 320 v -80 H 320 Z m 160,-160 q 66,0 113,-47 47,-47 47,-113 0,-66 -47,-113 -47,-47 -113,-47 -66,0 -113,47 -47,47 -47,113 0,66 47,113 47,47 113,47 z m 0,-120 q -17,0 -28.5,-11.5 Q 440,-543 440,-560 q 0,-17 11.5,-28.5 11.5,-11.5 28.5,-11.5 17,0 28.5,11.5 11.5,11.5 11.5,28.5 0,17 -11.5,28.5 Q 497,-520 480,-520 Z m 0,-40 z"
       id="path1-8-0"
       style="fill:#ee7733;fill-opacity:1" /></g><g
     style="fill:#33bbee;fill-opacity:1"
     id="g81-6"
     transform="matrix(0.0587494,0,0,0.0587494,942.96815,802.20503)"><path
       d="m 240,-360 h 80 v -240 h -80 z m 200,0 h 80 v -240 h -80 z m 200,0 h 80 v -240 h -80 z m -480,80 H 800 V -680 H 160 Z m 0,0 v -400 z m 40,160 v -80 h -40 q -33,0 -56.5,-23.5 Q 80,-247 80,-280 v -400 q 0,-33 23.5,-56.5 Q 127,-760 160,-760 h 40 v -80 h 80 v 80 h 160 v -80 h 80 v 80 h 160 v -80 h 80 v 80 h 40 q 33,0 56.5,23.5 23.5,23.5 23.5,56.5 v 400 q 0,33 -23.5,56.5 Q 833,-200 800,-200 h -40 v 80 h -80 v -80 H 520 v 80 h -80 v -80 H 280 v 80 z"
       id="path1-1-2"
       style="fill:#33bbee;fill-opacity:1" /></g><g
     style="fill:#0077bb;fill-opacity:1"
     id="g82-99"
     transform="matrix(0.07533094,0,0,0.07533094,935.33716,732.32452)"><path
       d="m 360,-360 v -240 h 240 v 240 z m 80,-80 h 80 v -80 h -80 z m -80,320 v -80 h -80 q -33,0 -56.5,-23.5 Q 200,-247 200,-280 v -80 h -80 v -80 h 80 v -80 h -80 v -80 h 80 v -80 q 0,-33 23.5,-56.5 Q 247,-760 280,-760 h 80 v -80 h 80 v 80 h 80 v -80 h 80 v 80 h 80 q 33,0 56.5,23.5 23.5,23.5 23.5,56.5 v 80 h 80 v 80 h -80 v 80 h 80 v 80 h -80 v 80 q 0,33 -23.5,56.5 Q 713,-200 680,-200 h -80 v 80 h -80 v -80 h -80 v 80 z M 680,-280 V -680 H 280 v 400 z M 480,-480 Z"
       id="path1-0-0"
       style="fill:#0077bb;fill-opacity:1" /></g><path
     style="fill:none;stroke:#777777;stroke-width:2;stroke-linecap:round;stroke-dasharray:none;stroke-opacity:1"
     d="M 944.01544,648.49642 H 1357.7375"
     id="path94-8"
     sodipodi:nodetypes="cc" /><path
     style="fill:none;stroke:#777777;stroke-width:2;stroke-linecap:round;stroke-dasharray:none;stroke-opacity:1"
     d="m 1019.2143,297.62969 v 98.32722"
     id="path94-8-2"
     sodipodi:nodetypes="cc" /><path
     style="fill:none;stroke:#777777;stroke-width:2;stroke-linecap:round;stroke-dasharray:none;stroke-opacity:1"
     d="m 654.72537,297.62969 v 98.32722"
     id="path94-8-2-3"
     sodipodi:nodetypes="cc" /><path
     style="fill:none;stroke:#777777;stroke-width:2;stroke-linecap:round;stroke-dasharray:none;stroke-opacity:1"
     d="m 330.76567,297.62969 v 98.32722"
     id="path94-8-2-9"
     sodipodi:nodetypes="cc" /><g
     style="fill:#1f1f1f"
     id="g1"
     transform="matrix(0.06798875,0,0,0.06798875,96.829223,378.1468)"><path
       d="m 480,-316.5 q 38,-0.5 56,-27.5 l 224,-336 -336,224 q -27,18 -28.5,55 -1.5,37 22.5,61 24,24 62,23.5 z m 0,-483.5 q 59,0 113.5,16.5 Q 648,-767 696,-734 l -76,48 Q 587,-703 551.5,-711.5 516,-720 480,-720 347,-720 253.5,-626.5 160,-533 160,-400 q 0,42 11.5,83 11.5,41 32.5,77 h 552 q 23,-38 33.5,-79 10.5,-41 10.5,-85 0,-36 -8.5,-70 -8.5,-34 -25.5,-66 l 48,-76 q 30,47 47.5,100 17.5,53 18.5,110 1,57 -13,109 -14,52 -41,99 -11,18 -30,28 -19,10 -40,10 H 204 q -21,0 -40,-10 -19,-10 -30,-28 -26,-45 -40,-95.5 Q 80,-344 80,-400 q 0,-83 31.5,-155.5 31.5,-72.5 86,-127 54.5,-54.5 127.5,-86 73,-31.5 155,-31.5 z m 7,313 z"
       id="path1-5" /></g><g
     style="fill:#1f1f1f"
     id="g2"
     transform="matrix(0,0.05933872,-0.05933872,0,715.10656,319.64087)"><path
       d="m 80,-120 v -80 h 800 v 80 z m 40,-120 v -280 h 120 v 280 z m 200,0 v -480 h 120 v 480 z m 200,0 v -360 h 120 v 360 z m 200,0 v -600 h 120 v 600 z"
       id="path1-2" /></g><g
     style="fill:#1f1f1f"
     id="g3"
     transform="matrix(0.06441458,0,0,0.06441458,391.15458,373.61803)"><path
       d="m 120,-120 v -80 l 80,-80 v 160 z m 160,0 v -240 l 80,-80 v 320 z m 160,0 v -320 l 80,81 v 239 z m 160,0 v -239 l 80,-80 v 319 z m 160,0 v -400 l 80,-80 v 480 z M 120,-327 v -113 l 280,-280 160,160 280,-280 v 113 L 560,-447 400,-607 Z"
       id="path1-28" /></g><g
     style="fill:#1f1f1f"
     id="g4"
     transform="matrix(0.06880484,0,0,0.06880484,1063.5113,380.0038)"><path
       d="m 200,-160 v -280 h -80 v -80 h 240 v 80 h -80 v 280 z m 0,-440 v -200 h 80 v 200 z m 160,0 v -80 h 80 v -120 h 80 v 120 h 80 v 80 z m 80,440 v -360 h 80 v 360 z m 240,0 v -120 h -80 v -80 h 240 v 80 h -80 v 120 z m 0,-280 v -360 h 80 v 360 z"
       id="path1-9" /></g></svg>
