<?xml version="1.0" encoding="UTF-8" standalone="no"?>
<svg
   width="1395.3928"
   height="862.71283"
   viewBox="0 0 1395.3928 862.71283"
   version="1.1"
   id="svg76"
   sodipodi:docname="cgroups_resource_control_panels_palette.svg"
   xml:space="preserve"
   inkscape:version="1.4.4 (dcaf3e7d9e, 2026-05-05)"
   xmlns:inkscape="http://www.inkscape.org/namespaces/inkscape"
   xmlns:sodipodi="http://sodipodi.sourceforge.net/DTD/sodipodi-0.dtd"
   xmlns="http://www.w3.org/2000/svg"
   xmlns:svg="http://www.w3.org/2000/svg"><sodipodi:namedview
     id="namedview76"
     pagecolor="#ffffff"
     bordercolor="#000000"
     borderopacity="0.25"
     inkscape:showpageshadow="2"
     inkscape:pageopacity="0.0"
     inkscape:pagecheckerboard="0"
     inkscape:deskcolor="#d1d1d1"
     inkscape:zoom="0.72924456"
     inkscape:cx="419.61232"
     inkscape:cy="271.51385"
     inkscape:window-width="2560"
     inkscape:window-height="1373"
     inkscape:window-x="0"
     inkscape:window-y="0"
     inkscape:window-maximized="1"
     inkscape:current-layer="svg76" /><defs
     id="defs4"><marker
       style="overflow:visible"
       id="DartArrow"
       refX="0"
       refY="0"
       orient="auto-start-reverse"
       inkscape:stockid="Dart arrow"
       markerWidth="1"
       markerHeight="1"
       viewBox="0 0 1 1"
       inkscape:isstock="true"
       inkscape:collect="always"
       preserveAspectRatio="xMidYMid"><path
         style="fill:context-stroke;fill-rule:evenodd;stroke:none"
         d="M 0,0 5,-5 -12.5,0 5,5 Z"
         transform="scale(-0.5)"
         id="path6" /></marker><style
       id="style1">
      .title { font: 700 54px 'Arial', 'Helvetica', sans-serif; fill: #111; }
      .hostLabel { font: 700 44px 'Arial', 'Helvetica', sans-serif; fill: #111; }
      .panelTitle { font: 700 32px 'Arial', 'Helvetica', sans-serif; fill: #111; }
      .bigLabel { font: 700 28px 'Arial', 'Helvetica', sans-serif; fill: #111; }
      .text { font: 400 24px 'Arial', 'Helvetica', sans-serif; fill: #111; }
      .smallText { font: 400 20px 'Arial', 'Helvetica', sans-serif; fill: #111; }
      .line { stroke: #111; stroke-width: 3; fill: none; }
      .thin { stroke: #111; stroke-width: 2; fill: none; }
      .box { fill: #fff; stroke: #111; stroke-width: 3; rx: 8; ry: 8; }
      .lightbox { fill: #fff; stroke: #111; stroke-width: 3; }
      .muted { fill: #BBBBBB; }
      .cpu { fill: #0077BB; }
      .ram { fill: #33BBEE; }
      .io { fill: #EE7733; }
      .pids { fill: #EE3377; }
      .teal { fill: #009988; }
      .red { fill: #CC3311; }
      .greyFill { fill: #F7F7F7; }
      .blackFill { fill: #111; }
      .cpuStroke { stroke: #0077BB; }
      .ramStroke { stroke: #33BBEE; }
      .ioStroke { stroke: #EE7733; }
      .pidsStroke { stroke: #EE3377; }
      .processCircle { fill: #fff; stroke: #111; stroke-width: 3; }
      .metricDivider { stroke: #777; stroke-width: 2; }
    </style><marker
       id="arrow-cpu"
       markerWidth="10"
       markerHeight="10"
       refX="6"
       refY="3"
       orient="auto"
       markerUnits="strokeWidth"><path
         d="M 0,0 V 6 L 6,3 Z"
         fill="#0077bb"
         id="path1" /></marker><marker
       id="arrow-ram"
       markerWidth="10"
       markerHeight="10"
       refX="6"
       refY="3"
       orient="auto"
       markerUnits="strokeWidth"><path
         d="M 0,0 V 6 L 6,3 Z"
         fill="#33bbee"
         id="path2" /></marker><marker
       id="arrow-io"
       markerWidth="10"
       markerHeight="10"
       refX="6"
       refY="3"
       orient="auto"
       markerUnits="strokeWidth"><path
         d="M 0,0 V 6 L 6,3 Z"
         fill="#ee7733"
         id="path3" /></marker><marker
       id="arrow-pids"
       markerWidth="10"
       markerHeight="10"
       refX="6"
       refY="3"
       orient="auto"
       markerUnits="strokeWidth"><path
         d="M 0,0 V 6 L 6,3 Z"
         fill="#ee3377"
         id="path4" /></marker><marker
       style="overflow:visible"
       id="DartArrow-1"
       refX="0"
       refY="0"
       orient="auto-start-reverse"
       inkscape:stockid="Dart arrow"
       markerWidth="1"
       markerHeight="1"
       viewBox="0 0 1 1"
       inkscape:isstock="true"
       inkscape:collect="always"
       preserveAspectRatio="xMidYMid"><path
         style="fill:context-stroke;fill-rule:evenodd;stroke:none"
         d="M 0,0 5,-5 -12.5,0 5,5 Z"
         transform="scale(-0.5)"
         id="path6-3" /></marker><marker
       style="overflow:visible"
       id="DartArrow-1-0"
       refX="0"
       refY="0"
       orient="auto-start-reverse"
       inkscape:stockid="Dart arrow"
       markerWidth="1"
       markerHeight="1"
       viewBox="0 0 1 1"
       inkscape:isstock="true"
       inkscape:collect="always"
       preserveAspectRatio="xMidYMid"><path
         style="fill:context-stroke;fill-rule:evenodd;stroke:none"
         d="M 0,0 5,-5 -12.5,0 5,5 Z"
         transform="scale(-0.5)"
         id="path6-3-3" /></marker><marker
       style="overflow:visible"
       id="DartArrow-1-0-3"
       refX="0"
       refY="0"
       orient="auto-start-reverse"
       inkscape:stockid="Dart arrow"
       markerWidth="1"
       markerHeight="1"
       viewBox="0 0 1 1"
       inkscape:isstock="true"
       inkscape:collect="always"
       preserveAspectRatio="xMidYMid"><path
         style="fill:context-stroke;fill-rule:evenodd;stroke:none"
         d="M 0,0 5,-5 -12.5,0 5,5 Z"
         transform="scale(-0.5)"
         id="path6-3-3-9" /></marker><marker
       style="overflow:visible"
       id="DartArrow-1-0-3-6"
       refX="0"
       refY="0"
       orient="auto-start-reverse"
       inkscape:stockid="Dart arrow"
       markerWidth="1"
       markerHeight="1"
       viewBox="0 0 1 1"
       inkscape:isstock="true"
       inkscape:collect="always"
       preserveAspectRatio="xMidYMid"><path
         style="fill:context-stroke;fill-rule:evenodd;stroke:none"
         d="M 0,0 5,-5 -12.5,0 5,5 Z"
         transform="scale(-0.5)"
         id="path6-3-3-9-9" /></marker><marker
       style="overflow:visible"
       id="DartArrow-1-0-3-8"
       refX="0"
       refY="0"
       orient="auto-start-reverse"
       inkscape:stockid="Dart arrow"
       markerWidth="1"
       markerHeight="1"
       viewBox="0 0 1 1"
       inkscape:isstock="true"
       inkscape:collect="always"
       preserveAspectRatio="xMidYMid"><path
         style="fill:context-stroke;fill-rule:evenodd;stroke:none"
         d="M 0,0 5,-5 -12.5,0 5,5 Z"
         transform="scale(-0.5)"
         id="path6-3-3-9-0" /></marker><marker
       style="overflow:visible"
       id="DartArrow-1-0-3-8-6"
       refX="0"
       refY="0"
       orient="auto-start-reverse"
       inkscape:stockid="Dart arrow"
       markerWidth="1"
       markerHeight="1"
       viewBox="0 0 1 1"
       inkscape:isstock="true"
       inkscape:collect="always"
       preserveAspectRatio="xMidYMid"><path
         style="fill:context-stroke;fill-rule:evenodd;stroke:none"
         d="M 0,0 5,-5 -12.5,0 5,5 Z"
         transform="scale(-0.5)"
         id="path6-3-3-9-0-4" /></marker><marker
       style="overflow:visible"
       id="DartArrow-1-0-3-8-6-4"
       refX="0"
       refY="0"
       orient="auto-start-reverse"
       inkscape:stockid="Dart arrow"
       markerWidth="1"
       markerHeight="1"
       viewBox="0 0 1 1"
       inkscape:isstock="true"
       inkscape:collect="always"
       preserveAspectRatio="xMidYMid"><path
         style="fill:context-stroke;fill-rule:evenodd;stroke:none"
         d="M 0,0 5,-5 -12.5,0 5,5 Z"
         transform="scale(-0.5)"
         id="path6-3-3-9-0-4-6" /></marker><marker
       style="overflow:visible"
       id="DartArrow-1-0-3-8-6-7"
       refX="0"
       refY="0"
       orient="auto-start-reverse"
       inkscape:stockid="Dart arrow"
       markerWidth="1"
       markerHeight="1"
       viewBox="0 0 1 1"
       inkscape:isstock="true"
       inkscape:collect="always"
       preserveAspectRatio="xMidYMid"><path
         style="fill:context-stroke;fill-rule:evenodd;stroke:none"
         d="M 0,0 5,-5 -12.5,0 5,5 Z"
         transform="scale(-0.5)"
         id="path6-3-3-9-0-4-5" /></marker></defs><rect
     x="1.5"
     y="1.5"
     width="1392.3928"
     height="859.71283"
     class="box"
     id="rect5"
     ry="31.199966"
     style="fill:none" /><text
     x="35.5"
     y="63.5"
     class="hostLabel"
     id="text5"
     style="font-style:normal;font-variant:normal;font-weight:700;font-stretch:normal;font-size:44px;line-height:normal;font-family:Arial, Helvetica, sans-serif"><tspan
       style="font-style:normal;font-variant:normal;font-weight:normal;font-stretch:normal;font-family:'SUSE Mono 20250730';-inkscape-font-specification:'SUSE Mono 20250730'"
       id="tspan77">Host</tspan></text><!-- Resource panels --><rect
     width="361.69464"
     height="162.66608"
     class="box"
     id="rect6"
     x="70.710716"
     y="104.58411"
     ry="23.151978"
     style="fill:none" /><text
     x="250.71072"
     y="150.58411"
     text-anchor="middle"
     class="panelTitle"
     id="text6"
     style="font-style:normal;font-variant:normal;font-weight:700;font-stretch:normal;font-size:32px;line-height:normal;font-family:Arial, Helvetica, sans-serif"><tspan
       style="font-style:normal;font-variant:normal;font-weight:bold;font-stretch:normal;font-family:'SUSE Mono 20250730';-inkscape-font-specification:'SUSE Mono 20250730 Bold'"
       id="tspan79">CPU</tspan></text><rect
     x="90.710716"
     y="170.58411"
     width="313.39151"
     height="34"
     rx="4"
     class="thin muted"
     fill="#fff"
     id="rect7" /><rect
     x="91.624069"
     y="171.6113"
     width="213.02193"
     height="32.003204"
     rx="7.9089284"
     class="cpu"
     id="rect8"
     ry="10.635846" /><rect
     x="91.581207"
     y="171.6113"
     width="72.587784"
     height="32.003162"
     rx="0"
     class="cpu"
     id="rect8-4"
     style="fill:#0077bb"
     ry="3.1513393" /><text
     x="252.71072"
     y="238.58411"
     text-anchor="middle"
     class="text"
     id="text8"
     style="font-style:normal;font-variant:normal;font-weight:400;font-stretch:normal;font-size:24px;line-height:normal;font-family:Arial, Helvetica, sans-serif"><tspan
       style="font-style:normal;font-variant:normal;font-weight:normal;font-stretch:normal;font-family:'SUSE Mono 20250730';-inkscape-font-specification:'SUSE Mono 20250730'"
       id="tspan78">16 cores</tspan></text><rect
     width="361.69464"
     height="162.66608"
     class="box"
     id="rect6-6"
     x="520.5036"
     y="104.58411"
     ry="23.151978"
     style="fill:none;stroke:#111111;stroke-width:3" /><text
     x="700.5036"
     y="150.58411"
     text-anchor="middle"
     class="panelTitle"
     id="text6-4"
     style="font-style:normal;font-variant:normal;font-weight:700;font-stretch:normal;font-size:32px;line-height:normal;font-family:Arial, Helvetica, sans-serif;fill:#111111"><tspan
       style="font-style:normal;font-variant:normal;font-weight:bold;font-stretch:normal;font-family:'SUSE Mono 20250730';-inkscape-font-specification:'SUSE Mono 20250730 Bold'"
       id="tspan79-3">RAM</tspan></text><rect
     x="540.5036"
     y="170.58411"
     width="313.39151"
     height="34"
     rx="4"
     class="thin muted"
     fill="#fff"
     id="rect7-3"
     style="fill:#bbbbbb;stroke:#111111;stroke-width:2" /><rect
     x="541.41693"
     y="171.6113"
     width="213.02193"
     height="32.003204"
     rx="7.9089284"
     class="cpu"
     id="rect8-3"
     ry="10.635846"
     style="fill:#33bbee;fill-opacity:1" /><rect
     x="541.37408"
     y="171.6113"
     width="72.587784"
     height="32.003162"
     rx="0"
     class="cpu"
     id="rect8-4-8"
     style="fill:#33bbee;fill-opacity:1"
     ry="3.1513393" /><text
     x="702.5036"
     y="238.58411"
     text-anchor="middle"
     class="text"
     id="text8-6"
     style="font-style:normal;font-variant:normal;font-weight:400;font-stretch:normal;font-size:24px;line-height:normal;font-family:Arial, Helvetica, sans-serif;fill:#111111"><tspan
       style="font-style:normal;font-variant:normal;font-weight:normal;font-stretch:normal;font-family:'SUSE Mono 20250730';-inkscape-font-specification:'SUSE Mono 20250730'"
       id="tspan78-0">32 GiB</tspan></text><rect
     width="361.69464"
     height="162.66608"
     class="box"
     id="rect6-6-8"
     x="966.66077"
     y="104.58411"
     ry="23.151978"
     style="fill:none;stroke:#111111;stroke-width:3" /><text
     x="1146.6606"
     y="150.58411"
     text-anchor="middle"
     class="panelTitle"
     id="text6-4-8"
     style="font-style:normal;font-variant:normal;font-weight:700;font-stretch:normal;font-size:32px;line-height:normal;font-family:Arial, Helvetica, sans-serif;fill:#111111"><tspan
       style="font-style:normal;font-variant:normal;font-weight:bold;font-stretch:normal;font-family:'SUSE Mono 20250730';-inkscape-font-specification:'SUSE Mono 20250730 Bold'"
       id="tspan79-3-8">Disk I/O</tspan></text><rect
     x="986.66083"
     y="170.58411"
     width="313.39151"
     height="34"
     rx="4"
     class="thin muted"
     fill="#fff"
     id="rect7-3-9"
     style="fill:#bbbbbb;stroke:#111111;stroke-width:2" /><rect
     x="987.57397"
     y="171.6113"
     width="213.02193"
     height="32.003204"
     rx="7.9089284"
     class="cpu"
     id="rect8-3-7"
     ry="10.635846"
     style="fill:#ee7733;fill-opacity:1" /><rect
     x="987.53119"
     y="171.6113"
     width="72.587784"
     height="32.003162"
     rx="0"
     class="cpu"
     id="rect8-4-8-7"
     style="fill:#ee7733;fill-opacity:1"
     ry="3.1513393" /><text
     x="1148.6606"
     y="238.58411"
     text-anchor="middle"
     class="text"
     id="text8-6-6"
     style="font-style:normal;font-variant:normal;font-weight:400;font-stretch:normal;font-size:24px;line-height:normal;font-family:Arial, Helvetica, sans-serif;fill:#111111"><tspan
       style="font-style:normal;font-variant:normal;font-weight:normal;font-stretch:normal;font-family:'SUSE Mono 20250730';-inkscape-font-specification:'SUSE Mono 20250730'"
       id="tspan78-0-4">5 GiB/s</tspan></text><!-- Buses --><!-- cgroup panels --><rect
     width="438"
     height="432"
     class="box"
     id="rect32"
     x="27.5"
     y="405.5"
     style="fill:none"
     ry="34" /><text
     x="246.5"
     y="447.5"
     text-anchor="middle"
     class="panelTitle"
     id="text32"
     style="font-style:normal;font-variant:normal;font-weight:700;font-stretch:normal;font-size:32px;line-height:normal;font-family:Arial, Helvetica, sans-serif"><tspan
       style="font-style:normal;font-variant:normal;font-weight:bold;font-stretch:normal;font-family:'SUSE Mono 20250730';-inkscape-font-specification:'SUSE Mono 20250730 Bold'"
       id="tspan80">cgroup A</tspan></text><circle
     cx="143.5"
     cy="517.5"
     r="34"
     class="processCircle"
     id="circle32"
     style="fill:none" /><text
     x="143.5"
     y="527.5"
     text-anchor="middle"
     class="bigLabel"
     id="text34"
     style="font-style:normal;font-variant:normal;font-weight:700;font-stretch:normal;font-size:28px;line-height:normal;font-family:Arial, Helvetica, sans-serif"><tspan
       style="font-style:normal;font-variant:normal;font-weight:bold;font-stretch:normal;font-family:'SUSE Mono 20250730';-inkscape-font-specification:'SUSE Mono 20250730 Bold'"
       id="tspan88">P</tspan></text><circle
     cx="243.95401"
     cy="517.5"
     r="34"
     class="processCircle"
     id="circle32-0"
     style="fill:none;stroke:#111111;stroke-width:3" /><text
     x="243.95401"
     y="527.5"
     text-anchor="middle"
     class="bigLabel"
     id="text34-4"
     style="font-style:normal;font-variant:normal;font-weight:700;font-stretch:normal;font-size:28px;line-height:normal;font-family:Arial, Helvetica, sans-serif;fill:#111111"><tspan
       style="font-style:normal;font-variant:normal;font-weight:bold;font-stretch:normal;font-family:'SUSE Mono 20250730';-inkscape-font-specification:'SUSE Mono 20250730 Bold'"
       id="tspan88-4">P</tspan></text><circle
     cx="344.40802"
     cy="517.5"
     r="34"
     class="processCircle"
     id="circle32-4"
     style="fill:none;stroke:#111111;stroke-width:3" /><text
     x="344.40802"
     y="527.5"
     text-anchor="middle"
     class="bigLabel"
     id="text34-7"
     style="font-style:normal;font-variant:normal;font-weight:700;font-stretch:normal;font-size:28px;line-height:normal;font-family:Arial, Helvetica, sans-serif;fill:#111111"><tspan
       style="font-style:normal;font-variant:normal;font-weight:bold;font-stretch:normal;font-family:'SUSE Mono 20250730';-inkscape-font-specification:'SUSE Mono 20250730 Bold'"
       id="tspan88-6">P</tspan></text><text
     x="111.5"
     y="630.5"
     class="text"
     id="text37"
     style="font-style:normal;font-variant:normal;font-weight:400;font-stretch:normal;font-size:24px;line-height:3.2;font-family:Arial, Helvetica, sans-serif"><tspan
       sodipodi:role="line"
       id="tspan90"
       x="111.5"
       y="630.5"
       style="font-style:normal;font-variant:normal;font-weight:normal;font-stretch:normal;line-height:3.2;font-family:'SUSE Mono 20250730';-inkscape-font-specification:'SUSE Mono 20250730'">CPU</tspan><tspan
       sodipodi:role="line"
       x="111.5"
       y="707.34857"
       style="font-style:normal;font-variant:normal;font-weight:normal;font-stretch:normal;line-height:3.2;font-family:'SUSE Mono 20250730';-inkscape-font-specification:'SUSE Mono 20250730'"
       id="tspan91">RAM</tspan><tspan
       sodipodi:role="line"
       x="111.5"
       y="784.19714"
       style="font-style:normal;font-variant:normal;font-weight:normal;font-stretch:normal;line-height:3.2;font-family:'SUSE Mono 20250730';-inkscape-font-specification:'SUSE Mono 20250730'"
       id="tspan92">Disk I/O</tspan></text><text
     x="284.15714"
     y="630.5"
     class="text"
     id="text37-1"
     style="font-style:normal;font-variant:normal;font-weight:400;font-stretch:normal;font-size:24px;line-height:3.2;font-family:Arial, Helvetica, sans-serif;fill:#111111"><tspan
       sodipodi:role="line"
       id="tspan90-7"
       x="284.15714"
       y="630.5"
       style="font-style:normal;font-variant:normal;font-weight:normal;font-stretch:normal;line-height:3.2;font-family:'SUSE Mono 20250730';-inkscape-font-specification:'SUSE Mono 20250730'">50%</tspan><tspan
       sodipodi:role="line"
       x="284.15714"
       y="707.34857"
       style="font-style:normal;font-variant:normal;font-weight:normal;font-stretch:normal;line-height:3.2;font-family:'SUSE Mono 20250730';-inkscape-font-specification:'SUSE Mono 20250730'"
       id="tspan91-5">1 GiB</tspan><tspan
       sodipodi:role="line"
       x="284.15714"
       y="784.19714"
       style="font-style:normal;font-variant:normal;font-weight:normal;font-stretch:normal;line-height:3.2;font-family:'SUSE Mono 20250730';-inkscape-font-specification:'SUSE Mono 20250730'"
       id="tspan92-9">100 MiB/s</tspan></text><g
     style="fill:#ee7733;fill-opacity:1"
     id="g80"
     transform="matrix(0.0575,0,0,0.0575,40.3,805.55598)"><path
       d="m 240,-80 q -33,0 -56.5,-23.5 Q 160,-127 160,-160 v -640 q 0,-33 23.5,-56.5 Q 207,-880 240,-880 h 480 q 33,0 56.5,23.5 23.5,23.5 23.5,56.5 v 640 q 0,33 -23.5,56.5 Q 753,-80 720,-80 Z m 0,-80 H 720 V -800 H 240 Z m 80,-80 h 320 v -80 H 320 Z m 160,-160 q 66,0 113,-47 47,-47 47,-113 0,-66 -47,-113 -47,-47 -113,-47 -66,0 -113,47 -47,47 -47,113 0,66 47,113 47,47 113,47 z m 0,-120 q -17,0 -28.5,-11.5 Q 440,-543 440,-560 q 0,-17 11.5,-28.5 11.5,-11.5 28.5,-11.5 17,0 28.5,11.5 11.5,11.5 11.5,28.5 0,17 -11.5,28.5 Q 497,-520 480,-520 Z m 0,-40 z"
       id="path1-8"
       style="fill:#ee7733;fill-opacity:1" /></g><g
     style="fill:#33bbee;fill-opacity:1"
     id="g81"
     transform="matrix(0.0587494,0,0,0.0587494,38.730647,726.78451)"><path
       d="m 240,-360 h 80 v -240 h -80 z m 200,0 h 80 v -240 h -80 z m 200,0 h 80 v -240 h -80 z m -480,80 H 800 V -680 H 160 Z m 0,0 v -400 z m 40,160 v -80 h -40 q -33,0 -56.5,-23.5 Q 80,-247 80,-280 v -400 q 0,-33 23.5,-56.5 Q 127,-760 160,-760 h 40 v -80 h 80 v 80 h 160 v -80 h 80 v 80 h 160 v -80 h 80 v 80 h 40 q 33,0 56.5,23.5 23.5,23.5 23.5,56.5 v 400 q 0,33 -23.5,56.5 Q 833,-200 800,-200 h -40 v 80 h -80 v -80 H 520 v 80 h -80 v -80 H 280 v 80 z"
       id="path1-1"
       style="fill:#33bbee;fill-opacity:1" /></g><g
     style="fill:#0077bb;fill-opacity:1"
     id="g82"
     transform="matrix(0.07533094,0,0,0.07533094,31.099658,656.904)"><path
       d="m 360,-360 v -240 h 240 v 240 z m 80,-80 h 80 v -80 h -80 z m -80,320 v -80 h -80 q -33,0 -56.5,-23.5 Q 200,-247 200,-280 v -80 h -80 v -80 h 80 v -80 h -80 v -80 h 80 v -80 q 0,-33 23.5,-56.5 Q 247,-760 280,-760 h 80 v -80 h 80 v 80 h 80 v -80 h 80 v 80 h 80 q 33,0 56.5,23.5 23.5,23.5 23.5,56.5 v 80 h 80 v 80 h -80 v 80 h 80 v 80 h -80 v 80 q 0,33 -23.5,56.5 Q 713,-200 680,-200 h -80 v 80 h -80 v -80 h -80 v 80 z M 680,-280 V -680 H 280 v 400 z M 480,-480 Z"
       id="path1-0"
       style="fill:#0077bb;fill-opacity:1" /></g><path
     style="fill:none;stroke:#777777;stroke-width:2;stroke-linecap:round;stroke-dasharray:none;stroke-opacity:1"
     d="M 39.777944,573.0759 H 453.5"
     id="path94"
     sodipodi:nodetypes="cc" /><rect
     width="438"
     height="432"
     class="box"
     id="rect32-0"
     x="479.35358"
     y="405.5"
     style="fill:none;stroke:#111111;stroke-width:3"
     ry="34" /><text
     x="698.35358"
     y="447.5"
     text-anchor="middle"
     class="panelTitle"
     id="text32-3"
     style="font-style:normal;font-variant:normal;font-weight:700;font-stretch:normal;font-size:32px;line-height:normal;font-family:Arial, Helvetica, sans-serif;fill:#111111"><tspan
       style="font-style:normal;font-variant:normal;font-weight:bold;font-stretch:normal;font-family:'SUSE Mono 20250730';-inkscape-font-specification:'SUSE Mono 20250730 Bold'"
       id="tspan80-0">cgroup B</tspan></text><circle
     cx="646.80536"
     cy="517.5"
     r="34"
     class="processCircle"
     id="circle32-9"
     style="fill:none;stroke:#111111;stroke-width:3" /><text
     x="646.80536"
     y="527.5"
     text-anchor="middle"
     class="bigLabel"
     id="text34-2"
     style="font-style:normal;font-variant:normal;font-weight:700;font-stretch:normal;font-size:28px;line-height:normal;font-family:Arial, Helvetica, sans-serif;fill:#111111"><tspan
       style="font-style:normal;font-variant:normal;font-weight:bold;font-stretch:normal;font-family:'SUSE Mono 20250730';-inkscape-font-specification:'SUSE Mono 20250730 Bold'"
       id="tspan88-5">P</tspan></text><circle
     cx="747.25934"
     cy="517.5"
     r="34"
     class="processCircle"
     id="circle32-0-4"
     style="fill:none;stroke:#111111;stroke-width:3" /><text
     x="747.25934"
     y="527.5"
     text-anchor="middle"
     class="bigLabel"
     id="text34-4-0"
     style="font-style:normal;font-variant:normal;font-weight:700;font-stretch:normal;font-size:28px;line-height:normal;font-family:Arial, Helvetica, sans-serif;fill:#111111"><tspan
       style="font-style:normal;font-variant:normal;font-weight:bold;font-stretch:normal;font-family:'SUSE Mono 20250730';-inkscape-font-specification:'SUSE Mono 20250730 Bold'"
       id="tspan88-4-5">P</tspan></text><text
     x="563.35358"
     y="630.5"
     class="text"
     id="text37-9"
     style="font-style:normal;font-variant:normal;font-weight:400;font-stretch:normal;font-size:24px;line-height:3.2;font-family:Arial, Helvetica, sans-serif;fill:#111111"><tspan
       sodipodi:role="line"
       id="tspan90-2"
       x="563.35358"
       y="630.5"
       style="font-style:normal;font-variant:normal;font-weight:normal;font-stretch:normal;line-height:3.2;font-family:'SUSE Mono 20250730';-inkscape-font-specification:'SUSE Mono 20250730'">CPU</tspan><tspan
       sodipodi:role="line"
       x="563.35358"
       y="707.34857"
       style="font-style:normal;font-variant:normal;font-weight:normal;font-stretch:normal;line-height:3.2;font-family:'SUSE Mono 20250730';-inkscape-font-specification:'SUSE Mono 20250730'"
       id="tspan91-2">RAM</tspan><tspan
       sodipodi:role="line"
       x="563.35358"
       y="784.19714"
       style="font-style:normal;font-variant:normal;font-weight:normal;font-stretch:normal;line-height:3.2;font-family:'SUSE Mono 20250730';-inkscape-font-specification:'SUSE Mono 20250730'"
       id="tspan92-4">Disk I/O</tspan></text><text
     x="751.52502"
     y="630.5"
     class="text"
     id="text37-1-7"
     style="font-style:normal;font-variant:normal;font-weight:400;font-stretch:normal;font-size:24px;line-height:3.2;font-family:Arial, Helvetica, sans-serif;fill:#111111"><tspan
       sodipodi:role="line"
       id="tspan90-7-7"
       x="751.52502"
       y="630.5"
       style="font-style:normal;font-variant:normal;font-weight:normal;font-stretch:normal;line-height:3.2;font-family:'SUSE Mono 20250730';-inkscape-font-specification:'SUSE Mono 20250730'">25%</tspan><tspan
       sodipodi:role="line"
       x="751.52502"
       y="707.34857"
       style="font-style:normal;font-variant:normal;font-weight:normal;font-stretch:normal;line-height:3.2;font-family:'SUSE Mono 20250730';-inkscape-font-specification:'SUSE Mono 20250730'"
       id="tspan91-5-5">750 MiB</tspan><tspan
       sodipodi:role="line"
       x="751.52502"
       y="784.19714"
       style="font-style:normal;font-variant:normal;font-weight:normal;font-stretch:normal;line-height:3.2;font-family:'SUSE Mono 20250730';-inkscape-font-specification:'SUSE Mono 20250730'"
       id="tspan92-9-4">1 GiB/s</tspan></text><g
     style="fill:#ee7733;fill-opacity:1"
     id="g80-8"
     transform="matrix(0.0575,0,0,0.0575,492.15357,805.55598)"><path
       d="m 240,-80 q -33,0 -56.5,-23.5 Q 160,-127 160,-160 v -640 q 0,-33 23.5,-56.5 Q 207,-880 240,-880 h 480 q 33,0 56.5,23.5 23.5,23.5 23.5,56.5 v 640 q 0,33 -23.5,56.5 Q 753,-80 720,-80 Z m 0,-80 H 720 V -800 H 240 Z m 80,-80 h 320 v -80 H 320 Z m 160,-160 q 66,0 113,-47 47,-47 47,-113 0,-66 -47,-113 -47,-47 -113,-47 -66,0 -113,47 -47,47 -47,113 0,66 47,113 47,47 113,47 z m 0,-120 q -17,0 -28.5,-11.5 Q 440,-543 440,-560 q 0,-17 11.5,-28.5 11.5,-11.5 28.5,-11.5 17,0 28.5,11.5 11.5,11.5 11.5,28.5 0,17 -11.5,28.5 Q 497,-520 480,-520 Z m 0,-40 z"
       id="path1-8-1"
       style="fill:#ee7733;fill-opacity:1" /></g><g
     style="fill:#33bbee;fill-opacity:1"
     id="g81-2"
     transform="matrix(0.0587494,0,0,0.0587494,490.58422,726.78451)"><path
       d="m 240,-360 h 80 v -240 h -80 z m 200,0 h 80 v -240 h -80 z m 200,0 h 80 v -240 h -80 z m -480,80 H 800 V -680 H 160 Z m 0,0 v -400 z m 40,160 v -80 h -40 q -33,0 -56.5,-23.5 Q 80,-247 80,-280 v -400 q 0,-33 23.5,-56.5 Q 127,-760 160,-760 h 40 v -80 h 80 v 80 h 160 v -80 h 80 v 80 h 160 v -80 h 80 v 80 h 40 q 33,0 56.5,23.5 23.5,23.5 23.5,56.5 v 400 q 0,33 -23.5,56.5 Q 833,-200 800,-200 h -40 v 80 h -80 v -80 H 520 v 80 h -80 v -80 H 280 v 80 z"
       id="path1-1-8"
       style="fill:#33bbee;fill-opacity:1" /></g><g
     style="fill:#0077bb;fill-opacity:1"
     id="g82-9"
     transform="matrix(0.07533094,0,0,0.07533094,482.95323,656.904)"><path
       d="m 360,-360 v -240 h 240 v 240 z m 80,-80 h 80 v -80 h -80 z m -80,320 v -80 h -80 q -33,0 -56.5,-23.5 Q 200,-247 200,-280 v -80 h -80 v -80 h 80 v -80 h -80 v -80 h 80 v -80 q 0,-33 23.5,-56.5 Q 247,-760 280,-760 h 80 v -80 h 80 v 80 h 80 v -80 h 80 v 80 h 80 q 33,0 56.5,23.5 23.5,23.5 23.5,56.5 v 80 h 80 v 80 h -80 v 80 h 80 v 80 h -80 v 80 q 0,33 -23.5,56.5 Q 713,-200 680,-200 h -80 v 80 h -80 v -80 h -80 v 80 z M 680,-280 V -680 H 280 v 400 z M 480,-480 Z"
       id="path1-0-3"
       style="fill:#0077bb;fill-opacity:1" /></g><path
     style="fill:none;stroke:#777777;stroke-width:2;stroke-linecap:round;stroke-dasharray:none;stroke-opacity:1"
     d="M 491.63152,573.0759 H 905.35357"
     id="path94-6"
     sodipodi:nodetypes="cc" /><rect
     width="438"
     height="432"
     class="box"
     id="rect32-02"
     x="930.23749"
     y="405.5"
     style="fill:none;stroke:#111111;stroke-width:3"
     ry="34" /><text
     x="1149.2375"
     y="447.5"
     text-anchor="middle"
     class="panelTitle"
     id="text32-1"
     style="font-style:normal;font-variant:normal;font-weight:700;font-stretch:normal;font-size:32px;line-height:normal;font-family:Arial, Helvetica, sans-serif;fill:#111111"><tspan
       style="font-style:normal;font-variant:normal;font-weight:bold;font-stretch:normal;font-family:'SUSE Mono 20250730';-inkscape-font-specification:'SUSE Mono 20250730 Bold'"
       id="tspan80-05">cgroup C</tspan></text><circle
     cx="1146.6915"
     cy="517.5"
     r="34"
     class="processCircle"
     id="circle32-0-8"
     style="fill:none;stroke:#111111;stroke-width:3" /><text
     x="1146.6915"
     y="527.5"
     text-anchor="middle"
     class="bigLabel"
     id="text34-4-5"
     style="font-style:normal;font-variant:normal;font-weight:700;font-stretch:normal;font-size:28px;line-height:normal;font-family:Arial, Helvetica, sans-serif;fill:#111111"><tspan
       style="font-style:normal;font-variant:normal;font-weight:bold;font-stretch:normal;font-family:'SUSE Mono 20250730';-inkscape-font-specification:'SUSE Mono 20250730 Bold'"
       id="tspan88-4-0">P</tspan></text><text
     x="1014.2375"
     y="630.5"
     class="text"
     id="text37-5"
     style="font-style:normal;font-variant:normal;font-weight:400;font-stretch:normal;font-size:24px;line-height:3.2;font-family:Arial, Helvetica, sans-serif;fill:#111111"><tspan
       sodipodi:role="line"
       id="tspan90-8"
       x="1014.2375"
       y="630.5"
       style="font-style:normal;font-variant:normal;font-weight:normal;font-stretch:normal;line-height:3.2;font-family:'SUSE Mono 20250730';-inkscape-font-specification:'SUSE Mono 20250730'">CPU</tspan><tspan
       sodipodi:role="line"
       x="1014.2375"
       y="707.34857"
       style="font-style:normal;font-variant:normal;font-weight:normal;font-stretch:normal;line-height:3.2;font-family:'SUSE Mono 20250730';-inkscape-font-specification:'SUSE Mono 20250730'"
       id="tspan91-6">RAM</tspan><tspan
       sodipodi:role="line"
       x="1014.2375"
       y="784.19714"
       style="font-style:normal;font-variant:normal;font-weight:normal;font-stretch:normal;line-height:3.2;font-family:'SUSE Mono 20250730';-inkscape-font-specification:'SUSE Mono 20250730'"
       id="tspan92-2">Disk I/O</tspan></text><text
     x="1202.4089"
     y="630.5"
     class="text"
     id="text37-1-8"
     style="font-style:normal;font-variant:normal;font-weight:400;font-stretch:normal;font-size:24px;line-height:3.2;font-family:Arial, Helvetica, sans-serif;fill:#111111"><tspan
       sodipodi:role="line"
       id="tspan90-7-4"
       x="1202.4089"
       y="630.5"
       style="font-style:normal;font-variant:normal;font-weight:normal;font-stretch:normal;line-height:3.2;font-family:'SUSE Mono 20250730';-inkscape-font-specification:'SUSE Mono 20250730'">60%</tspan><tspan
       sodipodi:role="line"
       x="1202.4089"
       y="707.34857"
       style="font-style:normal;font-variant:normal;font-weight:normal;font-stretch:normal;line-height:3.2;font-family:'SUSE Mono 20250730';-inkscape-font-specification:'SUSE Mono 20250730'"
       id="tspan91-5-7">4 GiB</tspan><tspan
       sodipodi:role="line"
       x="1202.4089"
       y="784.19714"
       style="font-style:normal;font-variant:normal;font-weight:normal;font-stretch:normal;line-height:3.2;font-family:'SUSE Mono 20250730';-inkscape-font-specification:'SUSE Mono 20250730'"
       id="tspan92-9-2">2 GiB/s</tspan></text><g
     style="fill:#ee7733;fill-opacity:1"
     id="g80-4"
     transform="matrix(0.0575,0,0,0.0575,943.0375,805.55598)"><path
       d="m 240,-80 q -33,0 -56.5,-23.5 Q 160,-127 160,-160 v -640 q 0,-33 23.5,-56.5 Q 207,-880 240,-880 h 480 q 33,0 56.5,23.5 23.5,23.5 23.5,56.5 v 640 q 0,33 -23.5,56.5 Q 753,-80 720,-80 Z m 0,-80 H 720 V -800 H 240 Z m 80,-80 h 320 v -80 H 320 Z m 160,-160 q 66,0 113,-47 47,-47 47,-113 0,-66 -47,-113 -47,-47 -113,-47 -66,0 -113,47 -47,47 -47,113 0,66 47,113 47,47 113,47 z m 0,-120 q -17,0 -28.5,-11.5 Q 440,-543 440,-560 q 0,-17 11.5,-28.5 11.5,-11.5 28.5,-11.5 17,0 28.5,11.5 11.5,11.5 11.5,28.5 0,17 -11.5,28.5 Q 497,-520 480,-520 Z m 0,-40 z"
       id="path1-8-0"
       style="fill:#ee7733;fill-opacity:1" /></g><g
     style="fill:#33bbee;fill-opacity:1"
     id="g81-6"
     transform="matrix(0.0587494,0,0,0.0587494,941.46815,726.78451)"><path
       d="m 240,-360 h 80 v -240 h -80 z m 200,0 h 80 v -240 h -80 z m 200,0 h 80 v -240 h -80 z m -480,80 H 800 V -680 H 160 Z m 0,0 v -400 z m 40,160 v -80 h -40 q -33,0 -56.5,-23.5 Q 80,-247 80,-280 v -400 q 0,-33 23.5,-56.5 Q 127,-760 160,-760 h 40 v -80 h 80 v 80 h 160 v -80 h 80 v 80 h 160 v -80 h 80 v 80 h 40 q 33,0 56.5,23.5 23.5,23.5 23.5,56.5 v 400 q 0,33 -23.5,56.5 Q 833,-200 800,-200 h -40 v 80 h -80 v -80 H 520 v 80 h -80 v -80 H 280 v 80 z"
       id="path1-1-2"
       style="fill:#33bbee;fill-opacity:1" /></g><g
     style="fill:#0077bb;fill-opacity:1"
     id="g82-99"
     transform="matrix(0.07533094,0,0,0.07533094,933.83716,656.904)"><path
       d="m 360,-360 v -240 h 240 v 240 z m 80,-80 h 80 v -80 h -80 z m -80,320 v -80 h -80 q -33,0 -56.5,-23.5 Q 200,-247 200,-280 v -80 h -80 v -80 h 80 v -80 h -80 v -80 h 80 v -80 q 0,-33 23.5,-56.5 Q 247,-760 280,-760 h 80 v -80 h 80 v 80 h 80 v -80 h 80 v 80 h 80 q 33,0 56.5,23.5 23.5,23.5 23.5,56.5 v 80 h 80 v 80 h -80 v 80 h 80 v 80 h -80 v 80 q 0,33 -23.5,56.5 Q 713,-200 680,-200 h -80 v 80 h -80 v -80 h -80 v 80 z M 680,-280 V -680 H 280 v 400 z M 480,-480 Z"
       id="path1-0-0"
       style="fill:#0077bb;fill-opacity:1" /></g><path
     style="fill:none;stroke:#777777;stroke-width:2;stroke-linecap:round;stroke-dasharray:none;stroke-opacity:1"
     d="M 942.51544,573.0759 H 1356.2375"
     id="path94-8"
     sodipodi:nodetypes="cc" /><path
     style="fill:none;fill-opacity:1;stroke:#0077bb;stroke-width:3;stroke-linecap:round;stroke-dasharray:none;stroke-opacity:1;marker-end:url(#DartArrow)"
     d="m 246.90001,267.99694 v 59.28358 h 803.57129 v 59.65078"
     id="path95"
     sodipodi:nodetypes="cccc" /><path
     style="fill:none;fill-opacity:1;stroke:#0077bb;stroke-width:3;stroke-linecap:round;stroke-dasharray:none;stroke-opacity:1;marker-end:url(#DartArrow-1)"
     d="m 246.90001,267.99694 v 59.28358 H 591.0918 v 59.65078"
     id="path95-1"
     sodipodi:nodetypes="cccc" /><path
     style="fill:none;fill-opacity:1;stroke:#0077bb;stroke-width:3;stroke-linecap:round;stroke-dasharray:none;stroke-opacity:1;marker-end:url(#DartArrow-1-0)"
     d="m 246.90001,267.99694 v 59.28358 H 145.42512 v 59.65078"
     id="path95-1-0"
     sodipodi:nodetypes="cccc" /><path
     style="fill:none;fill-opacity:1;stroke:#33bbee;stroke-width:3;stroke-linecap:round;stroke-dasharray:none;stroke-opacity:1;marker-end:url(#DartArrow-1-0-3)"
     d="m 697.23396,267.99694 v 59.28358 H 246.68764 v 59.65078"
     id="path95-1-0-9"
     sodipodi:nodetypes="cccc" /><path
     style="fill:none;fill-opacity:1;stroke:#33bbee;stroke-width:3;stroke-linecap:round;stroke-dasharray:none;stroke-opacity:1;marker-end:url(#DartArrow-1-0-3-8)"
     d="m 697.23396,267.99694 v 59.28358 h 439.41574 v 59.65078"
     id="path95-1-0-9-6"
     sodipodi:nodetypes="cccc" /><path
     style="fill:none;fill-opacity:1;stroke:#ee7733;stroke-width:3;stroke-linecap:round;stroke-dasharray:none;stroke-opacity:1;marker-end:url(#DartArrow-1-0-3-8-6)"
     d="m 1150.1918,267.99694 v 59.28358 H 804.70887 v 59.65078"
     id="path95-1-0-9-6-0"
     sodipodi:nodetypes="cccc" /><path
     style="fill:none;fill-opacity:1;stroke:#ee7733;stroke-width:3;stroke-linecap:round;stroke-dasharray:none;stroke-opacity:1;marker-end:url(#DartArrow-1-0-3-8-6-7)"
     d="m 1150.1918,267.99694 v 59.28358 h 87.1566 v 59.65078"
     id="path95-1-0-9-6-0-9"
     sodipodi:nodetypes="cccc" /><path
     style="fill:none;fill-opacity:1;stroke:#ee7733;stroke-width:3;stroke-linecap:round;stroke-dasharray:none;stroke-opacity:1;marker-end:url(#DartArrow-1-0-3-8-6-4)"
     d="m 1150.1918,267.99694 v 59.28358 H 341.21553 v 59.65078"
     id="path95-1-0-9-6-0-6"
     sodipodi:nodetypes="cccc" /><path
     style="fill:none;fill-opacity:1;stroke:#33bbee;stroke-width:3;stroke-linecap:round;stroke-dasharray:none;stroke-opacity:1;marker-end:url(#DartArrow-1-0-3-6)"
     d="M 697.234,267.99694 V 386.9313"
     id="path95-1-0-9-3"
     sodipodi:nodetypes="cc" /></svg>
