<?xml version="1.0" encoding="UTF-8" standalone="no"?>
<svg
   inkscape:export-ydpi="96"
   inkscape:export-xdpi="96"
   inkscape:export-filename="clt-logo_2025_de_96dpi.png"
   sodipodi:docname="clt-logo_2025_en.svg"
   inkscape:version="1.1.2 (0a00cf5339, 2022-02-04)"
   id="svg9334"
   height="70"
   width="197"
   version="1.0"
   xmlns:inkscape="http://www.inkscape.org/namespaces/inkscape"
   xmlns:sodipodi="http://sodipodi.sourceforge.net/DTD/sodipodi-0.dtd"
   xmlns="http://www.w3.org/2000/svg"
   xmlns:svg="http://www.w3.org/2000/svg"
   xmlns:rdf="http://www.w3.org/1999/02/22-rdf-syntax-ns#"
   xmlns:cc="http://creativecommons.org/ns#"
   xmlns:dc="http://purl.org/dc/elements/1.1/">
  <sodipodi:namedview
     inkscape:document-rotation="0"
     inkscape:current-layer="layer1"
     inkscape:window-maximized="1"
     inkscape:window-y="0"
     inkscape:window-x="0"
     inkscape:cy="16.705398"
     inkscape:cx="80.786949"
     inkscape:zoom="5.6568543"
     showgrid="false"
     id="namedview3043"
     inkscape:window-height="2051"
     inkscape:window-width="4096"
     inkscape:pageshadow="2"
     inkscape:pageopacity="0"
     guidetolerance="10"
     gridtolerance="10"
     objecttolerance="10"
     borderopacity="1"
     bordercolor="#666666"
     pagecolor="#ffffff"
     inkscape:pagecheckerboard="0"
     inkscape:snap-bbox="true"
     inkscape:bbox-nodes="true"
     inkscape:bbox-paths="true"
     inkscape:object-paths="true"
     inkscape:snap-intersection-paths="true"
     inkscape:snap-smooth-nodes="true"
     inkscape:snap-global="true" />
  <metadata
     id="metadata19774">
    <rdf:RDF>
      <cc:Work
         rdf:about="">
        <dc:format>image/svg+xml</dc:format>
        <dc:type
           rdf:resource="http://purl.org/dc/dcmitype/StillImage" />
      </cc:Work>
    </rdf:RDF>
  </metadata>
  <defs
     id="defs9336" />
  <g
     id="layer1"
     transform="translate(-251.44506,-497.3049)">
    <rect
       style="font-size:12px;display:inline;fill:#ffcc00;stroke:#0a276b;stroke-width:1.07427526;stroke-miterlimit:4;stroke-dasharray:none;stroke-opacity:1"
       id="rect16737"
       y="505.09235"
       x="251.98219"
       height="48.720886"
       width="196.03561" />
    <rect
       style="font-size:12px;display:inline;fill:#0a276b;fill-opacity:1;stroke:#0a276b;stroke-width:1.07427526;stroke-miterlimit:4;stroke-dasharray:none;stroke-opacity:1"
       id="rect16739"
       y="497.84204"
       x="279.50668"
       height="13.070231"
       width="70.045334" />
    <g
       style="font-size:12px;display:inline;fill:#0a276b;fill-opacity:1"
       id="g16741"
       transform="matrix(1.1500185,0,0,1.1425027,251.40723,497.84201)">
      <path
         style="fill:#ffffff;fill-opacity:1"
         id="path16743"
         d="M 31.863,8.953 C 30.862,8.953 30.067,8.65 29.478,8.043 28.89,7.437 28.595,6.583 28.595,5.483 28.595,4.422 28.89,3.577 29.48,2.946 30.07,2.315 30.867,2 31.867,2 c 0.267,0 0.506,0.016 0.718,0.045 0.212,0.03 0.415,0.072 0.61,0.126 0.152,0.045 0.318,0.106 0.496,0.185 0.18,0.078 0.324,0.146 0.436,0.203 v 1.598 h -0.17 C 33.877,4.085 33.775,4 33.652,3.9 33.529,3.8 33.39,3.703 33.236,3.608 33.08,3.513 32.91,3.432 32.722,3.366 32.536,3.299 32.341,3.265 32.138,3.265 c -0.242,0 -0.463,0.038 -0.664,0.114 -0.202,0.076 -0.395,0.208 -0.576,0.396 -0.167,0.17 -0.303,0.399 -0.41,0.688 -0.105,0.289 -0.158,0.63 -0.158,1.024 0,0.414 0.055,0.762 0.166,1.043 0.109,0.282 0.255,0.51 0.434,0.683 0.174,0.167 0.367,0.287 0.58,0.362 0.213,0.074 0.426,0.111 0.639,0.111 0.221,0 0.431,-0.036 0.631,-0.107 0.199,-0.072 0.369,-0.152 0.506,-0.24 0.148,-0.091 0.281,-0.183 0.395,-0.276 0.114,-0.093 0.211,-0.178 0.295,-0.251 h 0.152 V 8.38 C 34.005,8.437 33.863,8.502 33.702,8.574 33.54,8.648 33.374,8.71 33.204,8.761 32.995,8.824 32.8,8.871 32.618,8.905 32.434,8.937 32.184,8.953 31.863,8.953 Z"
         inkscape:connector-curvature="0" />
      <path
         style="fill:#ffffff;fill-opacity:1"
         id="path16745"
         d="M 39.739,8.828 H 38.176 V 6.327 C 38.176,6.123 38.167,5.921 38.152,5.719 38.134,5.517 38.103,5.367 38.058,5.272 38.003,5.159 37.923,5.077 37.822,5.028 37.718,4.979 37.58,4.954 37.407,4.954 c -0.13,0 -0.263,0.024 -0.396,0.072 -0.135,0.048 -0.277,0.124 -0.429,0.229 V 8.829 H 35.019 V 1.844 h 1.563 v 2.494 c 0.258,-0.219 0.509,-0.39 0.753,-0.513 0.244,-0.123 0.516,-0.185 0.813,-0.185 0.515,0 0.908,0.162 1.182,0.488 0.273,0.324 0.409,0.796 0.409,1.413 z"
         inkscape:connector-curvature="0" />
      <path
         style="fill:#ffffff;fill-opacity:1"
         id="path16747"
         d="m 43.482,8.969 c -0.949,0 -1.678,-0.227 -2.185,-0.682 -0.507,-0.455 -0.76,-1.102 -0.76,-1.942 0,-0.822 0.235,-1.479 0.708,-1.969 0.473,-0.49 1.135,-0.735 1.984,-0.735 0.771,0 1.352,0.207 1.74,0.623 0.389,0.414 0.583,1.009 0.583,1.781 v 0.564 h -3.453 c 0.015,0.236 0.064,0.434 0.148,0.592 0.084,0.159 0.194,0.285 0.333,0.379 0.135,0.094 0.292,0.162 0.473,0.202 0.18,0.041 0.375,0.062 0.588,0.062 0.184,0 0.363,-0.021 0.54,-0.063 C 44.358,7.74 44.52,7.685 44.666,7.618 44.795,7.56 44.914,7.497 45.023,7.43 45.132,7.363 45.222,7.303 45.291,7.25 h 0.167 V 8.551 C 45.33,8.602 45.212,8.649 45.105,8.693 45,8.736 44.853,8.78 44.669,8.825 44.497,8.87 44.321,8.906 44.142,8.931 c -0.179,0.025 -0.4,0.038 -0.66,0.038 z M 44.007,5.656 C 43.998,5.325 43.92,5.073 43.773,4.9 43.628,4.727 43.404,4.64 43.103,4.64 c -0.307,0 -0.547,0.091 -0.721,0.273 -0.174,0.182 -0.269,0.43 -0.287,0.742 h 1.912 z"
         inkscape:connector-curvature="0" />
      <path
         style="fill:#ffffff;fill-opacity:1"
         id="path16749"
         d="M 52.379,8.828 V 6.308 C 52.379,6.06 52.375,5.851 52.365,5.68 52.356,5.509 52.33,5.37 52.283,5.262 52.238,5.155 52.168,5.075 52.072,5.027 51.977,4.978 51.843,4.953 51.671,4.953 51.55,4.953 51.43,4.979 51.313,5.031 51.194,5.084 51.066,5.158 50.926,5.254 V 8.828 H 49.363 V 6.308 C 49.363,6.063 49.358,5.855 49.347,5.682 49.337,5.51 49.308,5.37 49.263,5.262 49.218,5.155 49.148,5.075 49.052,5.027 48.956,4.979 48.823,4.953 48.655,4.953 c -0.13,0 -0.257,0.03 -0.382,0.09 C 48.15,5.104 48.029,5.174 47.91,5.254 V 8.828 H 46.347 V 3.797 h 1.563 v 0.541 c 0.258,-0.219 0.5,-0.39 0.728,-0.513 0.228,-0.123 0.483,-0.185 0.767,-0.185 0.309,0 0.58,0.073 0.813,0.221 0.234,0.146 0.412,0.365 0.535,0.656 0.301,-0.282 0.586,-0.498 0.854,-0.65 0.268,-0.15 0.539,-0.227 0.814,-0.227 0.234,0 0.443,0.037 0.629,0.112 0.186,0.075 0.341,0.188 0.47,0.338 0.141,0.162 0.246,0.355 0.316,0.578 0.07,0.223 0.105,0.515 0.105,0.874 v 3.286 z"
         inkscape:connector-curvature="0" />
      <path
         style="fill:#ffffff;fill-opacity:1"
         id="path16751"
         d="M 59.822,8.828 H 58.26 V 6.327 C 58.26,6.123 58.25,5.921 58.235,5.719 58.217,5.517 58.186,5.367 58.141,5.272 58.086,5.159 58.008,5.077 57.905,5.028 57.802,4.979 57.663,4.954 57.491,4.954 57.36,4.954 57.227,4.978 57.095,5.026 56.961,5.074 56.819,5.15 56.667,5.255 V 8.829 H 55.104 V 3.797 h 1.563 v 0.541 c 0.258,-0.219 0.508,-0.39 0.752,-0.513 0.244,-0.123 0.516,-0.185 0.813,-0.185 0.516,0 0.909,0.162 1.182,0.488 0.273,0.324 0.41,0.796 0.41,1.413 v 3.287 z"
         inkscape:connector-curvature="0" />
      <path
         style="fill:#ffffff;fill-opacity:1"
         id="path16753"
         d="M 62.59,3.078 H 60.934 V 1.859 h 1.656 z m -0.047,5.75 H 60.98 V 3.797 h 1.563 z"
         inkscape:connector-curvature="0" />
      <path
         style="fill:#ffffff;fill-opacity:1"
         id="path16755"
         d="M 65.683,8.922 C 65.047,8.922 64.584,8.791 64.294,8.528 64.004,8.265 63.859,7.836 63.859,7.239 V 4.891 H 63.265 V 3.797 h 0.594 V 2.359 h 1.563 v 1.438 h 1.5 v 1.094 h -1.5 v 1.782 c 0,0.177 0.002,0.33 0.004,0.461 0.004,0.132 0.027,0.249 0.072,0.354 0.041,0.104 0.114,0.188 0.22,0.248 0.105,0.062 0.259,0.092 0.46,0.092 0.084,0 0.193,-0.019 0.328,-0.055 0.135,-0.037 0.229,-0.07 0.283,-0.102 h 0.133 v 1.106 c -0.17,0.045 -0.35,0.08 -0.539,0.105 -0.192,0.027 -0.424,0.04 -0.7,0.04 z"
         inkscape:connector-curvature="0" />
      <path
         style="fill:#ffffff;fill-opacity:1"
         id="path16757"
         d="M 71.58,8.828 H 67.189 V 7.791 L 69.595,4.969 H 67.298 V 3.797 h 4.234 v 1.012 l -2.4,2.816 h 2.447 v 1.203 z"
         inkscape:connector-curvature="0" />
      <path
         style="fill:#ffffff;fill-opacity:1"
         id="path16759"
         d="m 74.979,8.969 c -0.95,0 -1.679,-0.227 -2.186,-0.682 -0.506,-0.455 -0.76,-1.102 -0.76,-1.942 0,-0.822 0.236,-1.479 0.709,-1.969 0.473,-0.49 1.134,-0.735 1.982,-0.735 0.771,0 1.353,0.207 1.742,0.623 0.389,0.414 0.582,1.009 0.582,1.781 v 0.564 h -3.453 c 0.016,0.236 0.064,0.434 0.148,0.592 0.084,0.159 0.195,0.285 0.334,0.379 0.135,0.094 0.291,0.162 0.471,0.202 0.18,0.041 0.377,0.062 0.59,0.062 0.184,0 0.363,-0.021 0.539,-0.063 C 75.855,7.74 76.017,7.685 76.163,7.618 76.292,7.56 76.411,7.497 76.52,7.43 76.629,7.363 76.719,7.303 76.788,7.25 h 0.166 V 8.551 C 76.825,8.602 76.708,8.649 76.602,8.693 76.497,8.736 76.35,8.78 76.164,8.825 75.994,8.87 75.818,8.906 75.639,8.931 75.459,8.956 75.238,8.969 74.979,8.969 Z M 75.502,5.656 C 75.493,5.325 75.416,5.073 75.27,4.9 75.124,4.727 74.901,4.64 74.6,4.64 c -0.308,0 -0.548,0.091 -0.721,0.273 -0.174,0.182 -0.27,0.43 -0.287,0.742 h 1.91 z"
         inkscape:connector-curvature="0" />
      <path
         style="fill:#ffffff;fill-opacity:1"
         id="path16761"
         d="M 81.234,5.266 H 81.103 C 81.042,5.245 80.955,5.23 80.839,5.219 80.726,5.209 80.599,5.203 80.46,5.203 c -0.166,0 -0.34,0.024 -0.523,0.072 -0.182,0.048 -0.359,0.104 -0.531,0.171 V 8.828 H 77.843 V 3.797 h 1.563 v 0.71 c 0.072,-0.065 0.172,-0.149 0.301,-0.249 0.129,-0.101 0.245,-0.181 0.352,-0.24 0.113,-0.069 0.248,-0.129 0.4,-0.178 0.152,-0.049 0.295,-0.074 0.432,-0.074 0.051,0 0.107,0.002 0.172,0.005 0.063,0.003 0.121,0.007 0.172,0.013 v 1.482 z"
         inkscape:connector-curvature="0" />
    </g>
    <rect
       style="font-size:12px;display:inline;fill:#ffffff;fill-opacity:1;stroke:#0a276b;stroke-width:1.07427526;stroke-miterlimit:4;stroke-dasharray:none;stroke-opacity:1"
       id="rect12407"
       y="553.81207"
       x="251.98219"
       height="13.070231"
       width="196.03561" />
    <g
       style="font-size:12px;display:inline"
       id="g16764"
       transform="matrix(1.1500185,0,0,1.1425027,251.40723,497.84201)">
      <path
         style="fill:#0a276b"
         id="path16766"
         d="M 24.573,45.108 H 4.263 V 11.596 h 6.625 v 28.575 h 13.686 v 4.937 z"
         inkscape:connector-curvature="0" />
      <path
         style="display:inline;overflow:visible;visibility:visible;fill:#ffffff;fill-opacity:1;fill-rule:nonzero;stroke-width:0.87240666;stroke-linecap:butt;stroke-linejoin:miter;stroke-miterlimit:4;stroke-dasharray:none;stroke-dashoffset:0;stroke-opacity:1;marker:none;enable-background:accumulate"
         id="path2423"
         d="m 19.411,16.081 h -6.5 v -4.813 h 6.5 z"
         inkscape:connector-curvature="0" />
      <path
         style="fill:#0a276b"
         id="path16768"
         d="M 19.286,38.706 H 13.098 V 18.894 h 6.188 z"
         inkscape:connector-curvature="0" />
      <path
         style="fill:#0a276b"
         id="path16770"
         d="m 40.014,38.706 h -6.188 v -9.844 c 0,-0.801 -0.033,-1.598 -0.098,-2.393 -0.064,-0.796 -0.186,-1.383 -0.362,-1.76 -0.213,-0.447 -0.52,-0.768 -0.92,-0.963 -0.4,-0.193 -0.936,-0.291 -1.607,-0.291 -0.508,0 -1.02,0.094 -1.539,0.283 -0.518,0.188 -1.072,0.488 -1.66,0.9 v 14.066 h -6.188 v -19.81 h 6.188 v 2.174 c 1.01,-0.859 1.994,-1.531 2.951,-2.014 0.959,-0.482 2.02,-0.723 3.183,-0.723 2.021,0 3.566,0.639 4.637,1.916 1.068,1.277 1.604,3.127 1.604,5.552 v 12.907 z"
         inkscape:connector-curvature="0" />
      <path
         style="fill:#0a276b"
         id="path16772"
         d="M 60.318,38.706 H 54.13 v -2.121 c -1.07,0.898 -2.051,1.58 -2.943,2.047 -0.893,0.465 -1.957,0.699 -3.191,0.699 -1.963,0 -3.492,-0.623 -4.592,-1.869 -1.1,-1.246 -1.648,-3.119 -1.648,-5.623 V 18.894 h 6.188 v 9.883 c 0,1.029 0.027,1.869 0.08,2.52 0.053,0.651 0.18,1.201 0.381,1.65 0.188,0.414 0.479,0.727 0.873,0.939 0.394,0.212 0.947,0.32 1.654,0.32 0.436,0 0.951,-0.107 1.547,-0.32 0.596,-0.213 1.146,-0.502 1.652,-0.869 V 18.894 h 6.188 v 19.812 z"
         inkscape:connector-curvature="0" />
      <path
         style="fill:#0a276b"
         id="path16774"
         d="m 83.941,38.706 h -7.232 l -3.744,-5.611 -3.875,5.611 h -7.086 l 7.328,-9.922 -7.203,-9.891 h 7.234 l 3.688,5.535 3.742,-5.535 h 7.086 l -7.193,9.742 z"
         inkscape:connector-curvature="0" />
      <path
         style="fill:#0a276b"
         id="path16776"
         d="M 94.172,29.519 H 82.484 v -4.875 h 11.688 z"
         inkscape:connector-curvature="0" />
      <path
         style="fill:#0a276b"
         id="path16778"
         d="M 98.238,38.706 V 17.394 h -7.75 v -4.938 h 22.125 v 4.938 h -7.75 v 21.313 h -6.625 z"
         inkscape:connector-curvature="0" />
      <path
         style="fill:#0a276b"
         id="path16780"
         d="m 118.717,36.606 c -0.422,0.354 -0.799,0.67 -1.131,0.953 -0.332,0.281 -0.779,0.564 -1.34,0.846 -0.549,0.268 -1.082,0.467 -1.602,0.6 -0.52,0.133 -1.248,0.201 -2.182,0.201 -1.74,0 -3.184,-0.588 -4.334,-1.766 -1.15,-1.178 -1.725,-2.662 -1.725,-4.451 0,-1.471 0.291,-2.66 0.875,-3.566 0.584,-0.906 1.424,-1.625 2.521,-2.154 1.109,-0.541 2.436,-0.918 3.977,-1.131 1.541,-0.211 3.199,-0.377 4.975,-0.495 v -0.108 c 0,-1.115 -0.398,-1.887 -1.195,-2.314 -0.797,-0.426 -1.992,-0.639 -3.586,-0.639 -0.721,0 -1.564,0.135 -2.529,0.404 -0.967,0.27 -1.908,0.613 -2.826,1.033 h -0.523 v -4.766 c 0.607,-0.176 1.592,-0.385 2.951,-0.625 1.357,-0.24 2.729,-0.359 4.111,-0.359 3.396,0 5.869,0.568 7.422,1.707 1.551,1.139 2.328,2.875 2.328,5.211 v 13.52 h -6.188 v -2.101 z m 0,-3.115 v -4.098 c -1.041,0.105 -1.885,0.195 -2.527,0.271 -0.645,0.076 -1.275,0.225 -1.896,0.445 -0.537,0.188 -0.955,0.471 -1.254,0.85 -0.299,0.381 -0.447,0.885 -0.447,1.516 0,0.924 0.248,1.557 0.746,1.9 0.496,0.346 1.23,0.518 2.201,0.518 0.539,0 1.088,-0.123 1.65,-0.367 0.56,-0.246 1.07,-0.589 1.527,-1.035 z"
         inkscape:connector-curvature="0" />
      <path
         style="fill:#0a276b"
         id="path16782"
         d="m 145.734,36.413 c 0,1.834 -0.266,3.391 -0.795,4.672 -0.529,1.279 -1.254,2.279 -2.172,2.996 -0.918,0.729 -2.02,1.254 -3.303,1.578 -1.283,0.322 -2.707,0.484 -4.273,0.484 -1.318,0 -2.568,-0.086 -3.752,-0.256 -1.184,-0.172 -2.209,-0.369 -3.08,-0.592 V 40.33 h 0.723 c 0.307,0.113 0.668,0.24 1.086,0.379 0.418,0.137 0.838,0.262 1.262,0.377 0.506,0.127 1,0.23 1.482,0.311 0.482,0.081 0.977,0.121 1.482,0.121 1.047,0 1.92,-0.109 2.619,-0.322 0.699,-0.217 1.227,-0.521 1.58,-0.918 0.352,-0.408 0.6,-0.889 0.74,-1.441 0.141,-0.555 0.213,-1.254 0.213,-2.102 v -0.371 c -0.695,0.611 -1.498,1.104 -2.408,1.473 -0.912,0.371 -1.85,0.557 -2.814,0.557 -2.564,0 -4.543,-0.834 -5.938,-2.504 -1.395,-1.668 -2.09,-4.207 -2.09,-7.615 0,-1.551 0.213,-2.943 0.643,-4.178 0.43,-1.235 1.027,-2.287 1.791,-3.156 0.729,-0.834 1.611,-1.479 2.646,-1.932 1.035,-0.451 2.111,-0.678 3.229,-0.678 1.012,0 1.918,0.133 2.717,0.396 0.801,0.264 1.529,0.613 2.189,1.047 l 0.229,-0.881 h 5.994 v 17.52 z m -6.187,-3.932 v -9.029 c -0.307,-0.141 -0.684,-0.26 -1.131,-0.354 -0.447,-0.096 -0.895,-0.143 -1.342,-0.143 -1.482,0 -2.598,0.482 -3.344,1.445 -0.748,0.965 -1.121,2.309 -1.121,4.035 0,0.863 0.055,1.594 0.166,2.191 0.111,0.597 0.32,1.125 0.627,1.586 0.295,0.451 0.68,0.791 1.156,1.021 0.476,0.23 1.086,0.346 1.828,0.346 0.553,0 1.098,-0.094 1.633,-0.283 0.535,-0.189 1.045,-0.459 1.528,-0.815 z"
         inkscape:connector-curvature="0" />
      <path
         style="fill:#0a276b"
         id="path16784"
         d="m 158.537,39.206 c -3.729,0 -6.588,-0.893 -8.574,-2.68 -1.988,-1.785 -2.982,-4.328 -2.982,-7.631 0,-3.231 0.928,-5.811 2.783,-7.736 1.854,-1.928 4.449,-2.891 7.783,-2.891 3.029,0 5.307,0.816 6.832,2.449 1.525,1.635 2.289,3.973 2.289,7.018 v 2.221 h -13.5 c 0.059,0.92 0.252,1.689 0.58,2.309 0.328,0.62 0.762,1.111 1.301,1.477 0.527,0.367 1.141,0.629 1.844,0.789 0.703,0.158 1.471,0.238 2.303,0.238 0.715,0 1.416,-0.08 2.107,-0.242 0.691,-0.162 1.324,-0.373 1.898,-0.637 0.504,-0.227 0.969,-0.471 1.396,-0.734 0.427,-0.263 0.775,-0.496 1.045,-0.699 h 0.65 v 5.105 c -0.504,0.201 -0.965,0.387 -1.381,0.559 -0.416,0.17 -0.988,0.344 -1.715,0.52 -0.668,0.176 -1.357,0.314 -2.066,0.416 -0.708,0.098 -1.573,0.149 -2.593,0.149 z m 2.068,-13 c -0.035,-1.305 -0.338,-2.297 -0.908,-2.979 -0.57,-0.682 -1.441,-1.021 -2.615,-1.021 -1.199,0 -2.137,0.357 -2.813,1.074 -0.676,0.717 -1.049,1.691 -1.119,2.926 h 7.455 z"
         inkscape:connector-curvature="0" />
    </g>
    <text
       style="font-style:normal;font-variant:normal;font-weight:bold;font-stretch:normal;font-size:10.2966px;line-height:0%;font-family:'DejaVu Sans';-inkscape-font-specification:'DejaVu Sans Bold';text-align:start;writing-mode:lr-tb;text-anchor:start;display:inline;fill:#0a276b;fill-opacity:1;stroke:none"
       xml:space="preserve"
       id="text12433"
       transform="scale(1.0012452,0.99875634)"
       y="564.79926"
       x="255.55716"><tspan
         style="font-style:normal;font-variant:normal;font-weight:bold;font-stretch:normal;font-family:'DejaVu Sans';-inkscape-font-specification:'DejaVu Sans Bold'"
         id="tspan16818"
         y="564.79926"
         x="255.55716">22nd and 23rd March 2025</tspan></text>
  </g>
</svg>
