<?xml version="1.0" encoding="UTF-8" standalone="no"?>
<svg
   width="1686"
   height="361.362"
   viewBox="0 0 1686 361.362"
   role="img"
   aria-labelledby="title desc"
   version="1.1"
   id="svg55"
   sodipodi:docname="container-startup-simple.svg"
   xml:space="preserve"
   inkscape:version="1.4.4 (dcaf3e7d9e, 2026-05-05)"
   xmlns:inkscape="http://www.inkscape.org/namespaces/inkscape"
   xmlns:sodipodi="http://sodipodi.sourceforge.net/DTD/sodipodi-0.dtd"
   xmlns="http://www.w3.org/2000/svg"
   xmlns:svg="http://www.w3.org/2000/svg"
   xmlns:rdf="http://www.w3.org/1999/02/22-rdf-syntax-ns#"
   xmlns:cc="http://creativecommons.org/ns#"
   xmlns:dc="http://purl.org/dc/elements/1.1/"><sodipodi:namedview
     id="namedview55"
     pagecolor="#ffffff"
     bordercolor="#000000"
     borderopacity="0.25"
     inkscape:showpageshadow="2"
     inkscape:pageopacity="0.0"
     inkscape:pagecheckerboard="0"
     inkscape:deskcolor="#d1d1d1"
     inkscape:zoom="0.63334783"
     inkscape:cx="918.13689"
     inkscape:cy="191.04826"
     inkscape:window-width="1920"
     inkscape:window-height="1133"
     inkscape:window-x="0"
     inkscape:window-y="0"
     inkscape:window-maximized="1"
     inkscape:current-layer="svg55" /><title
     id="title">Container startup simplified</title><desc
     id="desc">A vector infographic showing image/rootfs, namespaces, cgroups, network, security, execve, and the final application process.</desc><defs
     id="defs6"><marker
       style="overflow:visible"
       id="DartArrow"
       refX="0"
       refY="0"
       orient="auto-start-reverse"
       inkscape:stockid="Dart arrow"
       markerWidth="1"
       markerHeight="1"
       viewBox="0 0 1 1"
       inkscape:isstock="true"
       inkscape:collect="always"
       preserveAspectRatio="xMidYMid"><path
         style="fill:context-stroke;fill-rule:evenodd;stroke:none"
         d="M 0,0 5,-5 -12.5,0 5,5 Z"
         transform="scale(-0.5)"
         id="path11" /></marker><style
       id="style1">
      .title{font:700 64px/1.1 'SUSE Mono 20250730',monospace;fill:#0b2f5b}
      .subtitle{font:400 31px/1.2 'SUSE Mono 20250730',monospace;fill:#6b778c}
      .stepTitle{font:700 28px/1.15 'SUSE Mono 20250730',monospace;fill:#0b2f5b;text-anchor:middle}
      .small{font:400 22px/1.15 'SUSE Mono 20250730',monospace;fill:#5e6a7d;text-anchor:middle}
      .tiny{font:400 18px/1.15 'SUSE Mono 20250730',monospace;fill:#5e6a7d;text-anchor:middle}
      .runtime{font:700 31px/1.1 'SUSE Mono 20250730',monospace;fill:#5e6a7d;text-anchor:middle}
      .box{fill:#fff;stroke-width:6}
      .arrow{fill:none;stroke-width:7;stroke-linecap:round;stroke-linejoin:round}
      .iconStroke{fill:none;stroke-width:8;stroke-linecap:round;stroke-linejoin:round}
    </style><marker
       id="arrBlue"
       markerWidth="14"
       markerHeight="14"
       refX="10"
       refY="5"
       orient="auto"
       markerUnits="strokeWidth"><path
         d="M 0,0 10,5 0,10 Z"
         fill="#0077bb"
         id="path1" /></marker><marker
       id="arrCyan"
       markerWidth="14"
       markerHeight="14"
       refX="10"
       refY="5"
       orient="auto"
       markerUnits="strokeWidth"><path
         d="M 0,0 10,5 0,10 Z"
         fill="#33bbee"
         id="path2" /></marker><marker
       id="arrTeal"
       markerWidth="14"
       markerHeight="14"
       refX="10"
       refY="5"
       orient="auto"
       markerUnits="strokeWidth"><path
         d="M 0,0 10,5 0,10 Z"
         fill="#009988"
         id="path3" /></marker><marker
       id="arrOrange"
       markerWidth="14"
       markerHeight="14"
       refX="10"
       refY="5"
       orient="auto"
       markerUnits="strokeWidth"><path
         d="M 0,0 10,5 0,10 Z"
         fill="#ee7733"
         id="path4" /></marker><marker
       id="arrRed"
       markerWidth="14"
       markerHeight="14"
       refX="10"
       refY="5"
       orient="auto"
       markerUnits="strokeWidth"><path
         d="M 0,0 10,5 0,10 Z"
         fill="#cc3311"
         id="path5" /></marker><marker
       id="arrMagenta"
       markerWidth="14"
       markerHeight="14"
       refX="10"
       refY="5"
       orient="auto"
       markerUnits="strokeWidth"><path
         d="M 0,0 10,5 0,10 Z"
         fill="#ee3377"
         id="path6" /></marker></defs><!-- step boxes --><rect
     class="box"
     x="3"
     y="3"
     width="220"
     height="300"
     rx="20"
     stroke="#0077bb"
     id="rect7"
     style="fill:none" /><rect
     class="box"
     x="253"
     y="3"
     width="300"
     height="300"
     rx="20"
     stroke="#33bbee"
     id="rect8"
     style="fill:none" /><rect
     class="box"
     x="583"
     y="3"
     width="240"
     height="300"
     rx="20"
     stroke="#009988"
     id="rect9"
     style="fill:none" /><rect
     class="box"
     x="853"
     y="3"
     width="250"
     height="300"
     rx="20"
     stroke="#ee7733"
     id="rect10"
     style="fill:none" /><rect
     class="box"
     x="1133"
     y="3"
     width="270"
     height="300"
     rx="20"
     stroke="#cc3311"
     id="rect11"
     style="fill:none" /><rect
     x="1433"
     y="28.072052"
     width="250"
     height="250"
     rx="20"
     fill="#EE3377"
     id="rect12"
     style="fill:none;stroke:#ee3377;stroke-width:6;stroke-dasharray:none;stroke-opacity:1" /><!-- arrows --><!-- image/rootfs icon --><text
     x="112.06201"
     y="59.800018"
     class="stepTitle"
     id="text21"
     style="font-style:normal;font-variant:normal;font-weight:700;font-stretch:normal;font-size:28px;line-height:1.15;font-family:'SUSE Mono 20250730'"><tspan
       x="112.06201"
       dy="0"
       id="tspan20"
       style="font-style:normal;font-variant:normal;font-weight:500;font-stretch:normal;font-size:37.3333px;font-family:'SUSE Mono 20250730';-inkscape-font-specification:'SUSE Mono 20250730 Medium'">Image</tspan></text><!-- namespaces --><text
     x="403"
     y="57"
     class="stepTitle"
     id="text23"
     style="font-style:normal;font-variant:normal;font-weight:700;font-stretch:normal;font-size:28px;line-height:1.15;font-family:'SUSE Mono 20250730'"><tspan
       x="403"
       id="tspan22"
       style="font-style:normal;font-variant:normal;font-weight:500;font-stretch:normal;font-size:37.3333px;font-family:'SUSE Mono 20250730';-inkscape-font-specification:'SUSE Mono 20250730 Medium'">Namespaces</tspan></text><text
     x="303"
     y="231"
     class="small"
     id="text27"
     style="font-style:normal;font-variant:normal;font-weight:400;font-stretch:normal;font-size:22px;line-height:1.15;font-family:'SUSE Mono 20250730'">pid</text><text
     x="368"
     y="231"
     class="small"
     id="text28"
     style="font-style:normal;font-variant:normal;font-weight:400;font-stretch:normal;font-size:22px;line-height:1.15;font-family:'SUSE Mono 20250730'">mnt</text><text
     x="431"
     y="231"
     class="small"
     id="text29"
     style="font-style:normal;font-variant:normal;font-weight:400;font-stretch:normal;font-size:22px;line-height:1.15;font-family:'SUSE Mono 20250730'">net</text><text
     x="500"
     y="231"
     class="small"
     id="text30"
     style="font-style:normal;font-variant:normal;font-weight:400;font-stretch:normal;font-size:22px;line-height:1.15;font-family:'SUSE Mono 20250730'">user</text><!-- cgroup --><text
     x="703"
     y="57"
     class="stepTitle"
     id="text31"
     style="font-style:normal;font-variant:normal;font-weight:700;font-stretch:normal;font-size:28px;line-height:1.35;font-family:'SUSE Mono 20250730'"><tspan
       sodipodi:role="line"
       id="tspan1"
       x="703"
       y="57"
       style="font-style:normal;font-variant:normal;font-weight:500;font-stretch:normal;font-size:37.3333px;font-family:'SUSE Mono 20250730';-inkscape-font-specification:'SUSE Mono 20250730 Medium'"><tspan
         x="703"
         id="tspan30"
         style="font-style:normal;font-variant:normal;font-weight:500;font-stretch:normal;font-size:37.3333px;line-height:1.35;font-family:'SUSE Mono 20250730';-inkscape-font-specification:'SUSE Mono 20250730 Medium';writing-mode:lr-tb"
         dy="0 0 0 0 0 0">Attach</tspan></tspan><tspan
       sodipodi:role="line"
       id="tspan2"
       x="703"
       y="107.39996"
       style="font-style:normal;font-variant:normal;font-weight:500;font-stretch:normal;font-size:37.3333px;font-family:'SUSE Mono 20250730';-inkscape-font-specification:'SUSE Mono 20250730 Medium'"><tspan
         x="703"
         style="font-style:normal;font-variant:normal;font-weight:500;font-stretch:normal;font-size:37.3333px;line-height:1.35;font-family:'SUSE Mono 20250730';-inkscape-font-specification:'SUSE Mono 20250730 Medium';writing-mode:lr-tb"
         id="tspan3">cgroup</tspan></tspan></text><!-- network --><text
     x="1110.8041"
     y="57"
     class="stepTitle"
     id="text35"
     style="font-style:normal;font-variant:normal;font-weight:700;font-stretch:normal;font-size:28px;line-height:1.15;font-family:'SUSE Mono 20250730';text-align:center;text-anchor:middle"><tspan
       sodipodi:role="line"
       id="tspan7"
       x="978"
       y="57"
       style="font-size:37.3333px"><tspan
         x="978"
         id="tspan34"
         style="font-style:normal;font-variant:normal;font-weight:500;font-stretch:normal;font-size:37.3333px;font-family:'SUSE Mono 20250730';-inkscape-font-specification:'SUSE Mono 20250730 Medium'"
         dy="0 0 0 0 0 0 0 0 0">Configure</tspan></tspan><tspan
       sodipodi:role="line"
       id="tspan8"
       x="978"
       y="99.933296"
       style="font-size:37.3333px"><tspan
         x="978"
         style="font-style:normal;font-variant:normal;font-weight:500;font-stretch:normal;font-size:37.3333px;font-family:'SUSE Mono 20250730';-inkscape-font-specification:'SUSE Mono 20250730 Medium'"
         id="tspan9">network</tspan></tspan></text><!-- security --><text
     x="1268"
     y="49"
     class="stepTitle"
     id="text38"
     style="font-style:normal;font-variant:normal;font-weight:700;font-stretch:normal;font-size:28px;line-height:1.15;font-family:'SUSE Mono 20250730'"><tspan
       sodipodi:role="line"
       id="tspan4"
       x="1268"
       y="49"
       style="font-size:37.3333px"><tspan
         x="1268"
         id="tspan37"
         style="font-style:normal;font-variant:normal;font-weight:500;font-stretch:normal;font-size:37.3333px;font-family:'SUSE Mono 20250730';-inkscape-font-specification:'SUSE Mono 20250730 Medium'"
         dy="0 0 0 0 0 0 0 0">Security</tspan></tspan><tspan
       sodipodi:role="line"
       id="tspan5"
       x="1268"
       y="91.933296"
       style="font-size:37.3333px"><tspan
         x="1268"
         style="font-style:normal;font-variant:normal;font-weight:500;font-stretch:normal;font-size:37.3333px;font-family:'SUSE Mono 20250730';-inkscape-font-specification:'SUSE Mono 20250730 Medium'"
         id="tspan6">setup</tspan></tspan></text><!-- capabilities gear --><text
     x="1210"
     y="286"
     class="tiny"
     id="text40"
     style="font-style:normal;font-variant:normal;font-weight:400;font-stretch:normal;font-size:18px;line-height:1.15;font-family:'SUSE Mono 20250730'">capabilities</text><!-- seccomp doc --><text
     x="1341.0681"
     y="286"
     class="tiny"
     id="text44"
     style="font-style:normal;font-variant:normal;font-weight:400;font-stretch:normal;font-size:18px;line-height:1.15;font-family:'SUSE Mono 20250730'">seccomp</text><!-- execve --><text
     x="1558"
     y="93.072052"
     font-family="'SUSE Mono 20250730'"
     font-size="34px"
     font-weight="700"
     fill="#fff"
     text-anchor="middle"
     id="text45"
     style="font-size:37.3333px;fill:#ee3377;fill-opacity:1;stroke:none;stroke-opacity:1"><tspan
       style="font-style:normal;font-variant:normal;font-weight:600;font-stretch:normal;font-family:'SUSE Mono 20250730';-inkscape-font-specification:'SUSE Mono 20250730 Semi-Bold'"
       id="tspan10">execve()</tspan></text><!-- app --><!-- runtime bracket --><g
     style="fill:#1f1f1f"
     id="g55"
     transform="matrix(0.14606918,0,0,0.14606918,1482.6447,248.18525)"><path
       d="m 480,-160 v -80 h 320 v 80 z m -260,-160 -56,-56 183,-184 -183,-184 56,-56 240,240 z"
       id="path1-3" /></g><g
     style="fill:#1f1f1f"
     id="g57"
     transform="matrix(0.05446414,0,0,0.05446414,1314.0979,258.45657)"><path
       d="m 320,-240 h 320 v -80 H 320 Z m 0,-160 h 320 v -80 H 320 Z m -80,320 q -33,0 -56.5,-23.5 Q 160,-127 160,-160 v -640 q 0,-33 23.5,-56.5 Q 207,-880 240,-880 h 320 l 240,240 v 480 q 0,33 -23.5,56.5 Q 753,-80 720,-80 Z M 520,-600 V -800 H 240 v 640 H 720 V -600 Z M 240,-800 v 200 -200 640 z"
       id="path1-7" /></g><g
     style="fill:#1f1f1f"
     id="g58"
     transform="matrix(0.06311443,0,0,0.06311443,1175.0771,258.32306)"><path
       d="m 370,-80 -16,-128 q -13,-5 -24.5,-12 -11.5,-7 -22.5,-15 l -119,50 -110,-190 103,-78 q -1,-7 -1,-13.5 v -27 q 0,-6.5 1,-13.5 l -103,-78 110,-190 119,50 q 11,-8 23,-15 12,-7 24,-12 l 16,-128 h 220 l 16,128 q 13,5 24.5,12 11.5,7 22.5,15 l 119,-50 110,190 -103,78 q 1,7 1,13.5 v 27 q 0,6.5 -2,13.5 l 103,78 -110,190 -118,-50 q -11,8 -23,15 -12,7 -24,12 l -16,128 z m 70,-80 h 79 l 14,-106 q 31,-8 57.5,-23.5 Q 617,-305 639,-327 l 99,41 39,-68 -86,-65 q 5,-14 7,-29.5 2,-15.5 2,-31.5 0,-16 -2,-31.5 -2,-15.5 -7,-29.5 l 86,-65 -39,-68 -99,42 Q 617,-655 590.5,-670.5 564,-686 533,-694 l -13,-106 h -79 l -14,106 q -31,8 -57.5,23.5 Q 343,-655 321,-633 l -99,-41 -39,68 86,64 q -5,15 -7,30 -2,15 -2,32 0,16 2,31 2,15 7,30 l -86,65 39,68 99,-42 q 22,23 48.5,38.5 26.5,15.5 57.5,23.5 z m 42,-180 q 58,0 99,-41 41,-41 41,-99 0,-58 -41,-99 -41,-41 -99,-41 -59,0 -99.5,41 -40.5,41 -40.5,99 0,58 40.5,99 40.5,41 99.5,41 z m -2,-140 z"
       id="path1-5" /></g><g
     style="fill:#cc3311;fill-opacity:1"
     id="g59"
     transform="matrix(0.11012811,0,0,0.11012811,1215.1385,211.11936)"><path
       d="M 480,-80 Q 341,-115 250.5,-239.5 160,-364 160,-516 v -244 l 320,-120 320,120 v 244 q 0,152 -90.5,276.5 Q 619,-115 480,-80 Z m 0,-84 q 104,-33 172,-132 68,-99 68,-220 v -189 l -240,-90 -240,90 v 189 q 0,121 68,220 68,99 172,132 z m 0,-316 z"
       id="path1-35"
       style="fill:#cc3311;fill-opacity:1" /></g><g
     style="fill:#1f1f1f"
     id="g60"
     transform="matrix(0.10305869,0,0,0.10305869,655.99549,252.25054)"><path
       d="m 480,-316.5 q 38,-0.5 56,-27.5 l 224,-336 -336,224 q -27,18 -28.5,55 -1.5,37 22.5,61 24,24 62,23.5 z m 0,-483.5 q 59,0 113.5,16.5 Q 648,-767 696,-734 l -76,48 Q 587,-703 551.5,-711.5 516,-720 480,-720 347,-720 253.5,-626.5 160,-533 160,-400 q 0,42 11.5,83 11.5,41 32.5,77 h 552 q 23,-38 33.5,-79 10.5,-41 10.5,-85 0,-36 -8.5,-70 -8.5,-34 -25.5,-66 l 48,-76 q 30,47 47.5,100 17.5,53 18.5,110 1,57 -13,109 -14,52 -41,99 -11,18 -30,28 -19,10 -40,10 H 204 q -21,0 -40,-10 -19,-10 -30,-28 -26,-45 -40,-95.5 Q 80,-344 80,-400 q 0,-83 31.5,-155.5 31.5,-72.5 86,-127 54.5,-54.5 127.5,-86 73,-31.5 155,-31.5 z m 7,313 z"
       id="path1-62" /></g><g
     style="fill:#1f1f1f"
     id="g61"
     transform="matrix(0.0625,0,0,0.0625,274.35714,188.5)"><path
       d="m 200,-120 q -33,0 -56.5,-23.5 Q 120,-167 120,-200 v -160 h 80 v 160 h 160 v 80 z m 400,0 v -80 h 160 v -160 h 80 v 160 q 0,33 -23.5,56.5 Q 793,-120 760,-120 Z M 120,-600 v -160 q 0,-33 23.5,-56.5 Q 167,-840 200,-840 h 160 v 80 H 200 v 160 z m 640,0 V -760 H 600 v -80 h 160 q 33,0 56.5,23.5 23.5,23.5 23.5,56.5 v 160 z"
       id="path1-9" /></g><g
     style="fill:#1f1f1f"
     id="g61-7"
     transform="matrix(0.0625,0,0,0.0625,338.149,188.5)"><path
       d="m 200,-120 q -33,0 -56.5,-23.5 Q 120,-167 120,-200 v -160 h 80 v 160 h 160 v 80 z m 400,0 v -80 h 160 v -160 h 80 v 160 q 0,33 -23.5,56.5 Q 793,-120 760,-120 Z M 120,-600 v -160 q 0,-33 23.5,-56.5 Q 167,-840 200,-840 h 160 v 80 H 200 v 160 z m 640,0 V -760 H 600 v -80 h 160 q 33,0 56.5,23.5 23.5,23.5 23.5,56.5 v 160 z"
       id="path1-9-0" /></g><g
     style="fill:#1f1f1f"
     id="g61-3"
     transform="matrix(0.0625,0,0,0.0625,402.45615,188.5)"><path
       d="m 200,-120 q -33,0 -56.5,-23.5 Q 120,-167 120,-200 v -160 h 80 v 160 h 160 v 80 z m 400,0 v -80 h 160 v -160 h 80 v 160 q 0,33 -23.5,56.5 Q 793,-120 760,-120 Z M 120,-600 v -160 q 0,-33 23.5,-56.5 Q 167,-840 200,-840 h 160 v 80 H 200 v 160 z m 640,0 V -760 H 600 v -80 h 160 q 33,0 56.5,23.5 23.5,23.5 23.5,56.5 v 160 z"
       id="path1-9-6" /></g><g
     style="fill:#1f1f1f"
     id="g61-7-0"
     transform="matrix(0.0625,0,0,0.0625,466.24801,188.5)"><path
       d="m 200,-120 q -33,0 -56.5,-23.5 Q 120,-167 120,-200 v -160 h 80 v 160 h 160 v 80 z m 400,0 v -80 h 160 v -160 h 80 v 160 q 0,33 -23.5,56.5 Q 793,-120 760,-120 Z M 120,-600 v -160 q 0,-33 23.5,-56.5 Q 167,-840 200,-840 h 160 v 80 H 200 v 160 z m 640,0 V -760 H 600 v -80 h 160 q 33,0 56.5,23.5 23.5,23.5 23.5,56.5 v 160 z"
       id="path1-9-0-6" /></g><g
     style="fill:#1f1f1f"
     id="g62"
     transform="matrix(0.10998455,0,0,0.10998455,60.207416,255.57495)"><path
       d="M 440,-183 V -457 L 200,-596 v 274 z m 80,0 240,-139 V -596 L 520,-457 Z M 480,-526 717,-663 480,-800 243,-663 Z m -320,274 q -19,-11 -29.5,-29 -10.5,-18 -10.5,-40 v -318 q 0,-22 10.5,-40 10.5,-18 29.5,-29 l 280,-161 q 19,-11 40,-11 21,0 40,11 l 280,161 q 19,11 29.5,29 10.5,18 10.5,40 v 318 q 0,22 -10.5,40 -10.5,18 -29.5,29 L 520,-91 q -19,11 -40,11 -21,0 -40,-11 z m 320,-228 z"
       id="path1-1" /></g><metadata
     id="metadata62"><rdf:RDF><cc:Work
         rdf:about=""><dc:title>Container startup simplified</dc:title></cc:Work></rdf:RDF></metadata><g
     style="fill:#1f1f1f"
     id="g63"
     transform="matrix(0.09121458,0,0,0.09121458,934.217,241.09249)"><path
       d="m 339,-262 q 22,-22 49.5,-36 27.5,-14 58.5,-19 -5,19 -8,38 -3,19 -3,39 0,24 3.5,47 3.5,23 11.5,44 z m -85,-84 -84,-86 q 62,-62 142,-95 80,-33 168,-33 49,0 96,10.5 47,10.5 90,30.5 -44,8 -81.5,29 -37.5,21 -67.5,52 -9,-1 -18.5,-1.5 -9.5,-0.5 -18.5,-0.5 -64,0 -122.5,24.5 Q 299,-391 254,-346 Z M 84,-516 0,-600 Q 95,-697 219.5,-748.5 344,-800 480,-800 q 136,0 260.5,51.5 Q 865,-697 960,-600 l -84,84 Q 797,-595 694.5,-637.5 592,-680 480,-680 368,-680 265.5,-637.5 163,-595 84,-516 Z m 676,76 12,60 q 12,5 22.5,10.5 10.5,5.5 21.5,13.5 l 58,-18 40,68 -46,40 q 2,12 2,26 0,14 -2,26 l 46,40 -40,68 -58,-18 q -11,8 -21.5,13.5 Q 784,-105 772,-100 l -12,60 h -80 l -12,-60 q -12,-5 -22.5,-10.5 Q 635,-116 624,-124 l -58,18 -40,-68 46,-40 q -2,-12 -2,-26 0,-14 2,-26 l -46,-40 40,-68 58,18 q 11,-8 21.5,-13.5 Q 656,-375 668,-380 l 12,-60 z m -96.5,143.5 Q 640,-273 640,-240 q 0,33 23.5,56.5 23.5,23.5 56.5,23.5 33,0 56.5,-23.5 Q 800,-207 800,-240 800,-273 776.5,-296.5 753,-320 720,-320 q -33,0 -56.5,23.5 z"
       id="path1-2" /></g><path
     style="fill:none;fill-opacity:1;stroke:#000000;stroke-width:6;stroke-opacity:1;marker-end:url(#DartArrow)"
     d="M 94.285716,346.36201 H 1633.2857"
     id="path7"
     sodipodi:nodetypes="cc" /></svg>
