<?xml version="1.0" encoding="UTF-8" standalone="no"?>
<!-- Created with Inkscape (http://www.inkscape.org/) -->

<svg
   width="244.49936mm"
   height="118.32061mm"
   viewBox="0 0 244.49936 118.32061"
   version="1.1"
   id="svg1"
   inkscape:version="1.4 (e7c3feb100, 2024-10-09)"
   sodipodi:docname="volumes.svg"
   xmlns:inkscape="http://www.inkscape.org/namespaces/inkscape"
   xmlns:sodipodi="http://sodipodi.sourceforge.net/DTD/sodipodi-0.dtd"
   xmlns="http://www.w3.org/2000/svg"
   xmlns:svg="http://www.w3.org/2000/svg">
  <sodipodi:namedview
     id="namedview1"
     pagecolor="#ffffff"
     bordercolor="#000000"
     borderopacity="0.25"
     inkscape:showpageshadow="2"
     inkscape:pageopacity="0.0"
     inkscape:pagecheckerboard="0"
     inkscape:deskcolor="#d1d1d1"
     inkscape:document-units="mm"
     inkscape:zoom="1.4954495"
     inkscape:cx="519.57621"
     inkscape:cy="201.61162"
     inkscape:window-width="2556"
     inkscape:window-height="1396"
     inkscape:window-x="1920"
     inkscape:window-y="20"
     inkscape:window-maximized="1"
     inkscape:current-layer="layer1" />
  <defs
     id="defs1">
    <marker
       style="overflow:visible"
       id="DartArrow"
       refX="0"
       refY="0"
       orient="auto-start-reverse"
       inkscape:stockid="Dart arrow"
       markerWidth="1"
       markerHeight="1"
       viewBox="0 0 1 1"
       inkscape:isstock="true"
       inkscape:collect="always"
       preserveAspectRatio="xMidYMid">
      <path
         style="fill:context-stroke;fill-rule:evenodd;stroke:none"
         d="M 0,0 5,-5 -12.5,0 5,5 Z"
         transform="scale(-0.5)"
         id="path6" />
    </marker>
    <marker
       style="overflow:visible"
       id="DartArrow-6"
       refX="0"
       refY="0"
       orient="auto-start-reverse"
       inkscape:stockid="Dart arrow"
       markerWidth="1"
       markerHeight="1"
       viewBox="0 0 1 1"
       inkscape:isstock="true"
       inkscape:collect="always"
       preserveAspectRatio="xMidYMid">
      <path
         style="fill:context-stroke;fill-rule:evenodd;stroke:none"
         d="M 0,0 5,-5 -12.5,0 5,5 Z"
         transform="scale(-0.5)"
         id="path6-2" />
    </marker>
    <marker
       style="overflow:visible"
       id="DartArrow-6-9"
       refX="0"
       refY="0"
       orient="auto-start-reverse"
       inkscape:stockid="Dart arrow"
       markerWidth="1"
       markerHeight="1"
       viewBox="0 0 1 1"
       inkscape:isstock="true"
       inkscape:collect="always"
       preserveAspectRatio="xMidYMid">
      <path
         style="fill:context-stroke;fill-rule:evenodd;stroke:none"
         d="M 0,0 5,-5 -12.5,0 5,5 Z"
         transform="scale(-0.5)"
         id="path6-2-1" />
    </marker>
    <marker
       style="overflow:visible"
       id="DartArrow-6-9-6"
       refX="0"
       refY="0"
       orient="auto-start-reverse"
       inkscape:stockid="Dart arrow"
       markerWidth="1"
       markerHeight="1"
       viewBox="0 0 1 1"
       inkscape:isstock="true"
       inkscape:collect="always"
       preserveAspectRatio="xMidYMid">
      <path
         style="fill:context-stroke;fill-rule:evenodd;stroke:none"
         d="M 0,0 5,-5 -12.5,0 5,5 Z"
         transform="scale(-0.5)"
         id="path6-2-1-6" />
    </marker>
  </defs>
  <g
     inkscape:label="Layer 1"
     inkscape:groupmode="layer"
     id="layer1"
     transform="translate(-181.6508,-114.95865)">
    <text
       xml:space="preserve"
       style="font-style:normal;font-variant:normal;font-weight:normal;font-stretch:normal;font-size:11.2889px;line-height:1.4;font-family:'Fira Code';-inkscape-font-specification:'Fira Code';text-align:center;writing-mode:lr-tb;direction:ltr;text-anchor:middle;opacity:0.98;fill:#000000;fill-opacity:1;stroke:none;stroke-width:0.529"
       x="303.97028"
       y="126.8411"
       id="text1-7-9"><tspan
         sodipodi:role="line"
         id="tspan1-7-3"
         style="font-size:11.2889px;fill:#000000;fill-opacity:1;stroke:none;stroke-width:0.529"
         x="303.97028"
         y="126.8411">Host</tspan></text>
    <rect
       style="opacity:0.98;fill:none;stroke:#000000;stroke-width:0.529;stroke-opacity:1"
       id="rect1-0"
       width="56.427948"
       height="93.914291"
       x="310.01096"
       y="132.86182"
       ry="5.3232012" />
    <rect
       style="opacity:0.98;fill:none;stroke:#000000;stroke-width:0.529;stroke-dasharray:2.116, 2.116;stroke-dashoffset:0;stroke-opacity:1"
       id="rect1-0-4-8"
       width="243.96904"
       height="117.78416"
       x="181.9153"
       y="115.22611"
       ry="5.3232012" />
    <rect
       style="opacity:0.98;fill:none;stroke:#0077bb;stroke-width:0.529;stroke-opacity:1"
       id="rect1-0-8"
       width="56.427948"
       height="94.091217"
       x="188.90903"
       y="132.86182"
       ry="5.3232012" />
    <rect
       style="opacity:0.98;fill:none;stroke:#0077bb;stroke-width:0.529;stroke-opacity:1;stroke-dasharray:1.58699995,1.58699995;stroke-dashoffset:0"
       id="rect1-0-8-1-8"
       width="51.173527"
       height="25.533491"
       x="312.7807"
       y="149.3439"
       ry="5.3232012" />
    <rect
       style="opacity:0.98;fill:none;stroke:#ee3377;stroke-width:0.529;stroke-opacity:1"
       id="rect1-0-3"
       width="56.427948"
       height="93.914291"
       x="249.71021"
       y="132.86182"
       ry="5.3232012" />
    <text
       xml:space="preserve"
       style="font-style:normal;font-variant:normal;font-weight:normal;font-stretch:normal;font-size:7.7611px;line-height:1.4;font-family:'Fira Code';-inkscape-font-specification:'Fira Code';text-align:center;writing-mode:lr-tb;direction:ltr;text-anchor:middle;opacity:0.98;fill:#000000;fill-opacity:1;stroke:none;stroke-width:0.529"
       x="338.62122"
       y="142.36983"
       id="text1-3"><tspan
         sodipodi:role="line"
         id="tspan1-0"
         style="fill:#000000;fill-opacity:1;stroke:none;stroke-width:0.529"
         x="338.62122"
         y="142.36983">merged</tspan></text>
    <text
       xml:space="preserve"
       style="font-style:normal;font-variant:normal;font-weight:normal;font-stretch:normal;font-size:7.7611px;line-height:1.4;font-family:'Fira Code';-inkscape-font-specification:'Fira Code';text-align:center;writing-mode:lr-tb;direction:ltr;text-anchor:middle;opacity:0.98;fill:#000000;fill-opacity:1;stroke:none;stroke-width:0.529"
       x="278.20544"
       y="142.36983"
       id="text1-3-1"><tspan
         sodipodi:role="line"
         id="tspan1-0-8"
         style="fill:#000000;fill-opacity:1;stroke:none;stroke-width:0.529"
         x="278.20544"
         y="142.36983">upper</tspan></text>
    <text
       xml:space="preserve"
       style="font-style:normal;font-variant:normal;font-weight:normal;font-stretch:normal;font-size:7.7611px;line-height:1.4;font-family:'Fira Code';-inkscape-font-specification:'Fira Code';text-align:center;writing-mode:lr-tb;direction:ltr;text-anchor:middle;opacity:0.98;fill:#000000;fill-opacity:1;stroke:none;stroke-width:0.529"
       x="217.31805"
       y="142.36983"
       id="text1-3-1-8"><tspan
         sodipodi:role="line"
         id="tspan1-0-8-8"
         style="fill:#000000;fill-opacity:1;stroke:none;stroke-width:0.529"
         x="217.31805"
         y="142.36983">lower</tspan></text>
    <rect
       style="opacity:0.98;fill:#009988;fill-opacity:1;stroke:#000000;stroke-width:0.529;stroke-opacity:1"
       id="rect1-0-4"
       width="72.711212"
       height="14.657731"
       x="339.41806"
       y="145.49963"
       ry="5.3232012" />
    <rect
       style="opacity:0.98;fill:#33bbee;fill-opacity:1;stroke:#000000;stroke-width:0.529;stroke-opacity:1"
       id="rect1-0-4-2"
       width="48.774704"
       height="16.358902"
       x="312.06277"
       y="206.75313"
       ry="5.3232012" />
    <rect
       style="opacity:0.98;fill:#33bbee;fill-opacity:1;stroke:#000000;stroke-width:0.529;stroke-opacity:1"
       id="rect1-0-4-2-2"
       width="42.936119"
       height="16.35891"
       x="372.21747"
       y="206.75313"
       ry="5.3232012" />
    <text
       xml:space="preserve"
       style="font-size:7.76111px;line-height:1.4;font-family:'Fira Code';-inkscape-font-specification:'Fira Code';text-align:start;writing-mode:lr-tb;direction:ltr;text-anchor:start;opacity:0.98;fill:#009988;fill-opacity:1;stroke:#0077bb;stroke-width:0.529;stroke-dasharray:2.116, 2.116;stroke-dashoffset:0;stroke-opacity:1"
       x="344.81259"
       y="155.63162"
       id="text3"><tspan
         sodipodi:role="line"
         id="tspan3"
         style="font-size:7.76111px;fill:#000000;fill-opacity:1;stroke:none;stroke-width:0.529"
         x="344.81259"
         y="155.63162">/vol:/var/db/</tspan></text>
    <text
       xml:space="preserve"
       style="font-size:7.76111px;line-height:1.4;font-family:'Fira Code';-inkscape-font-specification:'Fira Code';text-align:start;writing-mode:lr-tb;direction:ltr;text-anchor:start;opacity:0.98;fill:#009988;fill-opacity:1;stroke:#0077bb;stroke-width:0.529;stroke-dasharray:2.116, 2.116;stroke-dashoffset:0;stroke-opacity:1"
       x="316.32483"
       y="217.17348"
       id="text3-8"><tspan
         sodipodi:role="line"
         id="tspan3-6"
         style="font-size:7.76111px;fill:#000000;fill-opacity:1;stroke:none;stroke-width:0.529"
         x="316.32483"
         y="217.17348">/var/log</tspan></text>
    <text
       xml:space="preserve"
       style="font-size:7.76111px;line-height:1.4;font-family:'Fira Code';-inkscape-font-specification:'Fira Code';text-align:start;writing-mode:lr-tb;direction:ltr;text-anchor:start;opacity:0.98;fill:#009988;fill-opacity:1;stroke:#0077bb;stroke-width:0.529;stroke-dasharray:2.116, 2.116;stroke-dashoffset:0;stroke-opacity:1"
       x="384.0401"
       y="217.50616"
       id="text3-1"><tspan
         sodipodi:role="line"
         id="tspan3-1"
         style="font-size:7.76111px;fill:#000000;fill-opacity:1;stroke:none;stroke-width:0.529"
         x="384.0401"
         y="217.50616">logs</tspan></text>
    <path
       d="m 395.63959,193.04994 c -0.54515,-0.3797 -1.79667,-0.5197 -2.77456,-0.33092 -0.11454,-0.94606 -0.63636,-1.77546 -1.54637,-2.5094 l -0.52394,-0.3797 -0.36485,0.54515 a 4.4863858,4.4863858 0 0 0 -0.61303,2.65153 3.1627429,3.1627429 0 0 0 0.47727,1.44455 3.7906248,3.7906248 0 0 1 -1.84122,0.42425 H 372.0113 l -0.0445,0.18879 c -0.1591,0.94606 -0.1591,3.90517 1.69697,6.177 1.41062,1.72879 3.50214,2.60274 6.25337,2.60274 5.95851,0 10.37066,-2.86365 12.43885,-8.04792 0.81879,0.0233 2.5688,0 3.45759,-1.77546 0.0233,-0.0467 0.0679,-0.14213 0.22697,-0.49637 l 0.0912,-0.18879 -0.50061,-0.30758 z m -10.4852,-6.67549 h -2.50092 v 2.36728 h 2.50092 z m 0,2.84031 h -2.50092 v 2.36729 h 2.50092 z m -2.95698,0 h -2.50093 v 2.36729 h 2.50093 z m -2.95699,0 h -2.4988 v 2.36729 h 2.50092 v -2.36729 z m -2.95698,2.84032 h -2.4988 v 2.36729 h 2.50092 v -2.36729 z m 2.95698,0 h -2.4988 v 2.36729 h 2.50092 v -2.36729 z m 2.95699,0 h -2.50093 v 2.36729 h 2.50093 z m 2.95698,0 h -2.50092 v 2.36729 h 2.50092 z m 2.95698,0 h -2.50092 v 2.36729 h 2.50092 z"
       style="fill:#2496ed;stroke-width:0.212122"
       id="path2-0" />
    <path
       style="opacity:0.98;fill:#000000;fill-opacity:1;stroke:#000000;stroke-width:0.529;stroke-dasharray:none;stroke-dashoffset:0;stroke-opacity:1;marker-start:url(#DartArrow);marker-end:url(#DartArrow-6)"
       d="m 358.7272,214.80439 h 16.27716"
       id="path2-8"
       sodipodi:nodetypes="cc" />
    <path
       style="opacity:0.98;fill:#000000;fill-opacity:1;stroke:#000000;stroke-width:0.529;stroke-dasharray:none;stroke-dashoffset:0;stroke-opacity:1;marker-end:url(#DartArrow-6-9)"
       d="m 242.65746,162.16317 h 66.8197"
       id="path2-8-6"
       sodipodi:nodetypes="cc" />
    <path
       style="opacity:0.98;fill:#000000;fill-opacity:1;stroke:#000000;stroke-width:0.529;stroke-dasharray:none;stroke-dashoffset:0;stroke-opacity:1;marker-end:url(#DartArrow-6-9-6)"
       d="m 303.02937,188.75249 5.76832,0"
       id="path2-8-6-0"
       sodipodi:nodetypes="cc" />
    <path
       d="m 403.11427,193.72118 c -0.22576,0 -0.41048,0.18471 -0.41048,0.41047 v 4.15607 c 0.13084,-0.0334 0.26938,-0.0513 0.41048,-0.0513 h 9.85143 c 0.1411,0 0.27963,0.018 0.41047,0.0513 v -4.15607 c 0,-0.22576 -0.18471,-0.41047 -0.41047,-0.41047 z m -0.41048,6.15714 v 2.46286 c 0,0.22576 0.18472,0.41047 0.41048,0.41047 h 9.85143 c 0.22576,0 0.41047,-0.18471 0.41047,-0.41047 v -2.46286 c 0,-0.22576 -0.18471,-0.41048 -0.41047,-0.41048 h -9.85143 c -0.22576,0 -0.41048,0.18472 -0.41048,0.41048 z m -1.23142,0 v -5.74667 c 0,-0.90561 0.73629,-1.6419 1.6419,-1.6419 h 9.85143 c 0.90561,0 1.6419,0.73629 1.6419,1.6419 v 5.74667 2.46286 c 0,0.90561 -0.73629,1.6419 -1.6419,1.6419 h -9.85143 c -0.90561,0 -1.6419,-0.73629 -1.6419,-1.6419 z m 7.18333,1.23143 a 0.615715,0.615715 0 1 1 1.23143,0 0.615715,0.615715 0 1 1 -1.23143,0 z m 3.07857,-0.61572 a 0.615715,0.615715 0 1 1 0,1.23143 0.615715,0.615715 0 1 1 0,-1.23143 z"
       id="path1-2"
       style="stroke-width:0.0256547" />
    <path
       d="m 196.00985,152.79998 c 0,-0.3851 -0.31113,-0.69624 -0.69623,-0.69624 -0.38511,0 -0.69624,0.31114 -0.69624,0.69624 v 2.08871 5.5699 c 0,0.76804 0.62444,1.39247 1.39247,1.39247 h 4.17743 v -1.39247 h -4.17743 v -4.87366 h 4.17743 v -1.39247 h -4.17743 z m 4.87366,3.48119 c 0,0.3851 0.31113,0.69623 0.69625,0.69623 h 4.87366 c 0.3851,0 0.69623,-0.31113 0.69623,-0.69623 v -2.78495 c 0,-0.38511 -0.31113,-0.69624 -0.69623,-0.69624 h -2.14747 c -0.18493,0 -0.36117,-0.074 -0.49171,-0.20452 l -0.28937,-0.2872 c -0.13055,-0.13054 -0.30678,-0.20452 -0.49172,-0.20452 h -1.45339 c -0.38512,0 -0.69625,0.31114 -0.69625,0.69624 z m 0,6.26614 c 0,0.3851 0.31113,0.69623 0.69625,0.69623 h 4.87366 c 0.3851,0 0.69623,-0.31113 0.69623,-0.69623 v -2.78496 c 0,-0.3851 -0.31113,-0.69624 -0.69623,-0.69624 h -2.14747 c -0.18493,0 -0.36117,-0.074 -0.49171,-0.20451 l -0.28937,-0.28938 c -0.13055,-0.13054 -0.30678,-0.20452 -0.49172,-0.20452 l -1.45339,0.002 c -0.38512,0 -0.69625,0.31113 -0.69625,0.69624 z"
       id="path1-24"
       style="stroke-width:0.0217574" />
    <path
       d="m 256.06827,181.26312 c 0,-0.3851 -0.31113,-0.69624 -0.69623,-0.69624 -0.38511,0 -0.69624,0.31114 -0.69624,0.69624 v 2.08871 5.5699 c 0,0.76804 0.62444,1.39247 1.39247,1.39247 h 4.17743 v -1.39247 h -4.17743 v -4.87366 h 4.17743 v -1.39247 h -4.17743 z m 4.87366,3.48119 c 0,0.3851 0.31113,0.69623 0.69625,0.69623 h 4.87366 c 0.3851,0 0.69623,-0.31113 0.69623,-0.69623 v -2.78495 c 0,-0.38511 -0.31113,-0.69624 -0.69623,-0.69624 h -2.14747 c -0.18493,0 -0.36117,-0.074 -0.49171,-0.20452 l -0.28937,-0.2872 c -0.13055,-0.13054 -0.30678,-0.20452 -0.49172,-0.20452 h -1.45339 c -0.38512,0 -0.69625,0.31114 -0.69625,0.69624 z m 0,6.26614 c 0,0.3851 0.31113,0.69623 0.69625,0.69623 h 4.87366 c 0.3851,0 0.69623,-0.31113 0.69623,-0.69623 v -2.78496 c 0,-0.3851 -0.31113,-0.69624 -0.69623,-0.69624 h -2.14747 c -0.18493,0 -0.36117,-0.074 -0.49171,-0.20451 l -0.28937,-0.28938 c -0.13055,-0.13054 -0.30678,-0.20452 -0.49172,-0.20452 l -1.45339,0.002 c -0.38512,0 -0.69625,0.31113 -0.69625,0.69624 z"
       id="path1-24-9"
       style="stroke-width:0.0217574" />
    <rect
       style="opacity:0.98;fill:none;stroke:#ee3377;stroke-width:0.529;stroke-opacity:1"
       id="rect1-0-3-0"
       width="50.92334"
       height="22.604258"
       x="252.02463"
       y="177.49345"
       ry="5.3232012" />
    <rect
       style="opacity:0.98;fill:none;stroke:#ee3377;stroke-width:0.529;stroke-opacity:1;stroke-dasharray:1.58699995,1.58699995;stroke-dashoffset:0"
       id="rect1-0-3-0-6"
       width="50.92334"
       height="22.604258"
       x="312.26282"
       y="177.49345"
       ry="5.3232012" />
    <rect
       style="opacity:0.98;fill:none;stroke:#0077bb;stroke-width:0.529;stroke-opacity:1"
       id="rect1-0-8-1"
       width="51.173527"
       height="25.533491"
       x="191.42854"
       y="149.3439"
       ry="5.3232012" />
  </g>
</svg>
