<?xml version="1.0" encoding="UTF-8" standalone="no"?>
<!-- Created with Inkscape (http://www.inkscape.org/) -->

<svg
   width="244.49936mm"
   height="118.32061mm"
   viewBox="0 0 244.49936 118.32061"
   version="1.1"
   id="svg1"
   inkscape:version="1.4 (e7c3feb100, 2024-10-09)"
   sodipodi:docname="volumes.svg"
   xmlns:inkscape="http://www.inkscape.org/namespaces/inkscape"
   xmlns:sodipodi="http://sodipodi.sourceforge.net/DTD/sodipodi-0.dtd"
   xmlns="http://www.w3.org/2000/svg"
   xmlns:svg="http://www.w3.org/2000/svg">
  <sodipodi:namedview
     id="namedview1"
     pagecolor="#ffffff"
     bordercolor="#000000"
     borderopacity="0.25"
     inkscape:showpageshadow="2"
     inkscape:pageopacity="0.0"
     inkscape:pagecheckerboard="0"
     inkscape:deskcolor="#d1d1d1"
     inkscape:document-units="mm"
     inkscape:zoom="0.74772476"
     inkscape:cx="335.68502"
     inkscape:cy="99.635593"
     inkscape:window-width="2556"
     inkscape:window-height="1396"
     inkscape:window-x="1920"
     inkscape:window-y="20"
     inkscape:window-maximized="1"
     inkscape:current-layer="layer1" />
  <defs
     id="defs1">
    <marker
       style="overflow:visible"
       id="DartArrow"
       refX="0"
       refY="0"
       orient="auto-start-reverse"
       inkscape:stockid="Dart arrow"
       markerWidth="1"
       markerHeight="1"
       viewBox="0 0 1 1"
       inkscape:isstock="true"
       inkscape:collect="always"
       preserveAspectRatio="xMidYMid">
      <path
         style="fill:context-stroke;fill-rule:evenodd;stroke:none"
         d="M 0,0 5,-5 -12.5,0 5,5 Z"
         transform="scale(-0.5)"
         id="path6" />
    </marker>
    <marker
       style="overflow:visible"
       id="DartArrow-6"
       refX="0"
       refY="0"
       orient="auto-start-reverse"
       inkscape:stockid="Dart arrow"
       markerWidth="1"
       markerHeight="1"
       viewBox="0 0 1 1"
       inkscape:isstock="true"
       inkscape:collect="always"
       preserveAspectRatio="xMidYMid">
      <path
         style="fill:context-stroke;fill-rule:evenodd;stroke:none"
         d="M 0,0 5,-5 -12.5,0 5,5 Z"
         transform="scale(-0.5)"
         id="path6-2" />
    </marker>
  </defs>
  <g
     inkscape:label="Layer 1"
     inkscape:groupmode="layer"
     id="layer1"
     transform="translate(-181.6508,-114.95865)">
    <text
       xml:space="preserve"
       style="font-style:normal;font-variant:normal;font-weight:normal;font-stretch:normal;font-size:11.2889px;line-height:1.4;font-family:'Fira Code';-inkscape-font-specification:'Fira Code';text-align:center;writing-mode:lr-tb;direction:ltr;text-anchor:middle;opacity:0.98;fill:#000000;fill-opacity:1;stroke:none;stroke-width:0.529"
       x="303.97028"
       y="126.8411"
       id="text1-7-9"><tspan
         sodipodi:role="line"
         id="tspan1-7-3"
         style="font-size:11.2889px;fill:#000000;fill-opacity:1;stroke:none;stroke-width:0.529"
         x="303.97028"
         y="126.8411">Host</tspan></text>
    <rect
       style="opacity:0.98;fill:none;stroke:#000000;stroke-width:0.529;stroke-opacity:1"
       id="rect1-0"
       width="56.427948"
       height="93.914291"
       x="310.01096"
       y="132.86182"
       ry="5.3232012" />
    <rect
       style="opacity:0.98;fill:none;stroke:#000000;stroke-width:0.529;stroke-dasharray:2.116, 2.116;stroke-dashoffset:0;stroke-opacity:1"
       id="rect1-0-4-8"
       width="243.96904"
       height="117.78416"
       x="181.9153"
       y="115.22611"
       ry="5.3232012" />
    <rect
       style="opacity:0.98;fill:none;stroke:#0077bb;stroke-width:0.529;stroke-opacity:1"
       id="rect1-0-8"
       width="56.427948"
       height="94.091217"
       x="188.90903"
       y="132.86182"
       ry="5.3232012" />
    <rect
       style="opacity:0.98;fill:none;stroke:#ee3377;stroke-width:0.529;stroke-opacity:1"
       id="rect1-0-3"
       width="56.427948"
       height="93.914291"
       x="249.71021"
       y="132.86182"
       ry="5.3232012" />
    <text
       xml:space="preserve"
       style="font-style:normal;font-variant:normal;font-weight:normal;font-stretch:normal;font-size:7.7611px;line-height:1.4;font-family:'Fira Code';-inkscape-font-specification:'Fira Code';text-align:center;writing-mode:lr-tb;direction:ltr;text-anchor:middle;opacity:0.98;fill:#000000;fill-opacity:1;stroke:none;stroke-width:0.529"
       x="338.62122"
       y="142.36983"
       id="text1-3"><tspan
         sodipodi:role="line"
         id="tspan1-0"
         style="fill:#000000;fill-opacity:1;stroke:none;stroke-width:0.529"
         x="338.62122"
         y="142.36983">merged</tspan></text>
    <text
       xml:space="preserve"
       style="font-style:normal;font-variant:normal;font-weight:normal;font-stretch:normal;font-size:7.7611px;line-height:1.4;font-family:'Fira Code';-inkscape-font-specification:'Fira Code';text-align:center;writing-mode:lr-tb;direction:ltr;text-anchor:middle;opacity:0.98;fill:#000000;fill-opacity:1;stroke:none;stroke-width:0.529"
       x="278.20544"
       y="142.36983"
       id="text1-3-1"><tspan
         sodipodi:role="line"
         id="tspan1-0-8"
         style="fill:#000000;fill-opacity:1;stroke:none;stroke-width:0.529"
         x="278.20544"
         y="142.36983">upper</tspan></text>
    <text
       xml:space="preserve"
       style="font-style:normal;font-variant:normal;font-weight:normal;font-stretch:normal;font-size:7.7611px;line-height:1.4;font-family:'Fira Code';-inkscape-font-specification:'Fira Code';text-align:center;writing-mode:lr-tb;direction:ltr;text-anchor:middle;opacity:0.98;fill:#000000;fill-opacity:1;stroke:none;stroke-width:0.529"
       x="217.31805"
       y="142.36983"
       id="text1-3-1-8"><tspan
         sodipodi:role="line"
         id="tspan1-0-8-8"
         style="fill:#000000;fill-opacity:1;stroke:none;stroke-width:0.529"
         x="217.31805"
         y="142.36983">lower</tspan></text>
    <path
       d="m 208.11917,157.13748 a 7.2389121,7.2389121 0 1 1 14.47782,0 7.2389121,7.2389121 0 1 1 -14.47782,0 z m 7.23891,0.90487 a 0.90486542,0.90486542 0 1 1 0,-1.80973 0.90486542,0.90486542 0 1 1 0,1.80973 z m -2.71459,-0.90487 a 2.7145925,2.7145925 0 1 0 5.42918,0 2.7145925,2.7145925 0 1 0 -5.42918,0 z m -1.80973,-0.45242 c 0,-0.9897 0.49485,-2.0105 1.27812,-2.79378 0.78327,-0.78327 1.80407,-1.27812 2.79377,-1.27812 0.24883,0 0.45243,-0.20359 0.45243,-0.45242 0,-0.24884 -0.2036,-0.45244 -0.45243,-0.45244 -1.28378,0 -2.52231,0.63058 -3.43566,1.54109 -0.91335,0.91053 -1.54109,2.15189 -1.54109,3.43567 0,0.24883 0.20359,0.45242 0.45243,0.45242 0.24883,0 0.45243,-0.20359 0.45243,-0.45242 z"
       id="path1"
       style="stroke-width:0.028277" />
    <rect
       style="opacity:0.98;fill:#009988;fill-opacity:1;stroke:#000000;stroke-width:0.529;stroke-opacity:1"
       id="rect1-0-4"
       width="93.228455"
       height="19.611652"
       x="318.90079"
       y="156.11517"
       ry="5.3232012" />
    <rect
       style="opacity:0.98;fill:#33bbee;fill-opacity:1;stroke:#000000;stroke-width:0.529;stroke-opacity:1"
       id="rect1-0-4-2"
       width="42.936119"
       height="16.35891"
       x="317.90131"
       y="202.15306"
       ry="5.3232012" />
    <rect
       style="opacity:0.98;fill:#33bbee;fill-opacity:1;stroke:#000000;stroke-width:0.529;stroke-opacity:1"
       id="rect1-0-4-2-2"
       width="42.936119"
       height="16.35891"
       x="372.21747"
       y="202.15306"
       ry="5.3232012" />
    <text
       xml:space="preserve"
       style="font-size:7.76111px;line-height:1.4;font-family:'Fira Code';-inkscape-font-specification:'Fira Code';text-align:start;writing-mode:lr-tb;direction:ltr;text-anchor:start;opacity:0.98;fill:#009988;fill-opacity:1;stroke:#0077bb;stroke-width:0.529;stroke-dasharray:2.116, 2.116;stroke-dashoffset:0;stroke-opacity:1"
       x="344.81259"
       y="168.02612"
       id="text3"><tspan
         sodipodi:role="line"
         id="tspan3"
         style="font-size:7.76111px;fill:#000000;fill-opacity:1;stroke:none;stroke-width:0.529"
         x="344.81259"
         y="168.02612">/vol:/var/db/</tspan></text>
    <path
       d="m 335.03742,161.55126 v 1.12243 c 0,1.03357 -2.34541,1.87071 -5.238,1.87071 -2.8926,0 -5.23801,-0.83714 -5.23801,-1.87071 v -1.12243 c 0,-1.03357 2.34541,-1.87072 5.23801,-1.87072 2.89259,0 5.238,0.83715 5.238,1.87072 z m -1.28144,3.14981 c 0.48639,-0.17304 0.93302,-0.39518 1.28144,-0.66878 v 2.38283 c 0,1.03357 -2.34541,1.87071 -5.238,1.87071 -2.8926,0 -5.23801,-0.83714 -5.23801,-1.87071 v -2.38283 c 0.34842,0.27593 0.79506,0.49574 1.28144,0.66878 1.04994,0.37415 2.4483,0.59162 3.95657,0.59162 1.50826,0 2.90662,-0.21747 3.95656,-0.59162 z m -9.19457,3.07265 c 0.34842,0.27593 0.79506,0.49574 1.28144,0.66878 1.04994,0.37415 2.4483,0.59162 3.95657,0.59162 1.50826,0 2.90662,-0.21747 3.95656,-0.59162 0.48639,-0.17304 0.93302,-0.39518 1.28144,-0.66878 v 2.00869 c 0,1.03357 -2.34541,1.87071 -5.238,1.87071 -2.8926,0 -5.23801,-0.83714 -5.23801,-1.87071 z"
       id="path1-0"
       style="stroke-width:0.0233839" />
    <text
       xml:space="preserve"
       style="font-size:7.76111px;line-height:1.4;font-family:'Fira Code';-inkscape-font-specification:'Fira Code';text-align:start;writing-mode:lr-tb;direction:ltr;text-anchor:start;opacity:0.98;fill:#009988;fill-opacity:1;stroke:#0077bb;stroke-width:0.529;stroke-dasharray:2.116, 2.116;stroke-dashoffset:0;stroke-opacity:1"
       x="329.19315"
       y="213.08302"
       id="text3-1"><tspan
         sodipodi:role="line"
         id="tspan3-1"
         style="font-size:7.76111px;fill:#000000;fill-opacity:1;stroke:none;stroke-width:0.529"
         x="329.19315"
         y="213.08302">logs</tspan></text>
    <path
       d="m 407.84745,190.04221 c -0.54515,-0.3797 -1.79667,-0.5197 -2.77456,-0.33092 -0.11454,-0.94606 -0.63636,-1.77546 -1.54637,-2.5094 l -0.52394,-0.3797 -0.36485,0.54515 a 4.4863858,4.4863858 0 0 0 -0.61303,2.65153 3.1627429,3.1627429 0 0 0 0.47727,1.44455 3.7906248,3.7906248 0 0 1 -1.84122,0.42425 h -16.44159 l -0.0445,0.18879 c -0.1591,0.94606 -0.1591,3.90517 1.69697,6.177 1.41062,1.72879 3.50214,2.60274 6.25337,2.60274 5.95851,0 10.37066,-2.86365 12.43885,-8.04792 0.81879,0.0233 2.5688,0 3.45759,-1.77546 0.0233,-0.0467 0.0679,-0.14213 0.22697,-0.49637 l 0.0912,-0.18879 -0.50061,-0.30758 z m -10.4852,-6.67549 h -2.50092 v 2.36728 h 2.50092 z m 0,2.84031 h -2.50092 v 2.36729 h 2.50092 z m -2.95698,0 h -2.50093 v 2.36729 h 2.50093 z m -2.95699,0 h -2.4988 v 2.36729 h 2.50092 v -2.36729 z m -2.95698,2.84032 h -2.4988 v 2.36729 h 2.50092 v -2.36729 z m 2.95698,0 h -2.4988 v 2.36729 h 2.50092 v -2.36729 z m 2.95699,0 h -2.50093 v 2.36729 h 2.50093 z m 2.95698,0 h -2.50092 v 2.36729 h 2.50092 z m 2.95698,0 h -2.50092 v 2.36729 h 2.50092 z"
       style="fill:#2496ed;stroke-width:0.212122"
       id="path2-0" />
    <path
       style="opacity:0.98;fill:#000000;fill-opacity:1;stroke:#000000;stroke-width:0.529;stroke-dasharray:none;stroke-dashoffset:0;stroke-opacity:1;marker-start:url(#DartArrow);marker-end:url(#DartArrow-6)"
       d="m 358.7272,211.26266 h 16.27716"
       id="path2-8"
       sodipodi:nodetypes="cc" />
    <path
       d="m 388.07558,205.92905 c -0.22576,0 -0.41048,0.18471 -0.41048,0.41047 v 4.15607 c 0.13084,-0.0334 0.26938,-0.0513 0.41048,-0.0513 h 9.85143 c 0.1411,0 0.27963,0.018 0.41047,0.0513 v -4.15607 c 0,-0.22576 -0.18471,-0.41047 -0.41047,-0.41047 z m -0.41048,6.15714 v 2.46286 c 0,0.22576 0.18472,0.41047 0.41048,0.41047 h 9.85143 c 0.22576,0 0.41047,-0.18471 0.41047,-0.41047 v -2.46286 c 0,-0.22576 -0.18471,-0.41048 -0.41047,-0.41048 h -9.85143 c -0.22576,0 -0.41048,0.18472 -0.41048,0.41048 z m -1.23142,0 v -5.74667 c 0,-0.90561 0.73629,-1.6419 1.6419,-1.6419 h 9.85143 c 0.90561,0 1.6419,0.73629 1.6419,1.6419 v 5.74667 2.46286 c 0,0.90561 -0.73629,1.6419 -1.6419,1.6419 h -9.85143 c -0.90561,0 -1.6419,-0.73629 -1.6419,-1.6419 z m 7.18333,1.23143 a 0.615715,0.615715 0 1 1 1.23143,0 0.615715,0.615715 0 1 1 -1.23143,0 z m 3.07857,-0.61572 a 0.615715,0.615715 0 1 1 0,1.23143 0.615715,0.615715 0 1 1 0,-1.23143 z"
       id="path1-2"
       style="stroke-width:0.0256547" />
  </g>
</svg>
